<svg width="35" height="35" viewBox="0 0 35 35" fill="none" xmlns="http://www.w3.org/2000/svg">
<path d="M15.9759 0.665054C12.7195 0.981461 9.71366 2.18117 7.07694 4.21144C5.79154 5.20021 4.12381 7.0591 3.16141 8.57521C2.74613 9.2278 1.93534 10.8889 1.6453 11.6799C-1.12985 19.2539 1.91556 27.7969 8.8765 31.9695C11.6055 33.6043 14.8948 34.448 18.0852 34.3228C21.5987 34.1909 24.8616 33.0308 27.7093 30.9016C28.5398 30.2754 30.1944 28.6209 30.847 27.7573C34.0638 23.5056 35.1316 18.252 33.8067 13.1961C33.4903 12.0095 33.2002 11.2383 32.6202 10.0584C31.75 8.28517 30.847 7.02614 29.3968 5.56935C27.94 4.11916 26.6809 3.21608 24.9077 2.34596C23.2862 1.54836 21.7832 1.07375 20.0298 0.79689C19.0608 0.645279 16.8987 0.572769 15.9759 0.665054ZM19.7332 1.88454C24.2024 2.54372 28.1971 5.10133 30.6888 8.9048C31.2227 9.72219 31.9544 11.179 32.2906 12.0952C32.607 12.9522 32.9431 14.2837 33.0882 15.2659C33.2332 16.2085 33.253 18.4299 33.1277 19.3528C32.864 21.2842 32.3565 22.9453 31.5391 24.5471C31.1634 25.2986 30.3723 26.5708 30.2867 26.5708C30.2603 26.5708 30.1878 26.4126 30.1219 26.2215C29.7 25.0152 28.6651 23.2947 27.6763 22.1477C26.4173 20.6975 24.5584 19.3198 22.9566 18.6541C22.6863 18.542 22.4556 18.4365 22.4424 18.4234C22.4292 18.4102 22.5743 18.2322 22.7654 18.0213C23.5564 17.1577 24.2552 15.9317 24.5386 14.9033C25.2307 12.4248 24.4859 9.64308 22.6534 7.83693C22.3699 7.55348 21.9744 7.20412 21.7766 7.05251C21.2361 6.65041 20.0496 6.09669 19.3047 5.89235C18.7115 5.73415 18.5335 5.71437 17.492 5.71437C16.4505 5.71437 16.2725 5.73415 15.6792 5.89235C14.9344 6.09669 13.7478 6.65041 13.2073 7.05251C13.0096 7.20412 12.614 7.55348 12.3306 7.83693C10.4981 9.64308 9.75321 12.4248 10.4453 14.9033C10.7288 15.9317 11.4275 17.1577 12.2185 18.0213C12.4097 18.2322 12.5547 18.4102 12.5415 18.4234C12.5284 18.4365 12.2976 18.542 12.0274 18.6541C10.3794 19.3396 8.44803 20.7898 7.20218 22.273C6.23978 23.4265 5.27078 25.0613 4.86209 26.228C4.79618 26.4126 4.72367 26.5708 4.6973 26.5708C4.6116 26.5708 3.82059 25.2986 3.44486 24.5471C2.62747 22.9453 2.11991 21.2842 1.85623 19.3528C1.73099 18.4299 1.75076 16.2085 1.89578 15.2659C2.15286 13.5652 2.62088 12.0689 3.38553 10.5132C5.79154 5.62868 10.5244 2.35915 16.0088 1.79225C16.846 1.69997 18.8367 1.7527 19.7332 1.88454ZM18.6192 6.90089C20.8472 7.32277 22.7127 8.97731 23.385 11.1394C24.4265 14.4683 22.4622 18.0213 19.074 18.9375C18.2632 19.155 16.7207 19.155 15.9099 18.9375C12.5218 18.0213 10.5574 14.4683 11.5989 11.1394C12.5218 8.17311 15.5869 6.32741 18.6192 6.90089ZM14.1829 19.478C15.2508 20.012 16.2989 20.2625 17.492 20.2625C18.6851 20.2625 19.7332 20.012 20.8011 19.478C21.045 19.3528 21.2954 19.2539 21.3614 19.2539C21.4273 19.2539 21.803 19.3858 22.1919 19.544C25.501 20.8953 28.118 23.7166 29.2517 27.1509L29.4363 27.6914L29.232 27.9419C28.9749 28.2715 27.9268 29.2669 27.3401 29.7481C25.7251 31.0598 23.5169 32.1804 21.4932 32.6946C18.7642 33.3933 16.2198 33.3933 13.4908 32.6946C11.4737 32.1804 9.25223 31.0598 7.64383 29.7481C7.05716 29.2669 6.00907 28.2715 5.75199 27.9419L5.54764 27.6914L5.73221 27.1509C6.7012 24.2175 8.75785 21.7127 11.4737 20.1834C12.1065 19.8208 13.4182 19.2539 13.6226 19.2539C13.6885 19.2539 13.939 19.3528 14.1829 19.478Z" fill="#1C1C1C"/>
</svg>
