<svg width="31" height="35" viewBox="0 0 31 35"  xmlns="http://www.w3.org/2000/svg">
<path d="M14.1379 0.414062C13.8039 0.484375 13.2062 0.704102 12.8195 0.879883C11.1144 1.68848 9.99823 2.93652 9.383 4.71191C9.15448 5.3623 9.1369 5.54688 9.08417 7.17285L9.04022 8.93066L7.63397 8.9834C6.008 9.03613 5.56854 9.15918 4.716 9.80957C3.8371 10.4775 3.2746 11.3828 3.10761 12.3936C3.06366 12.7188 2.53632 16.9463 1.94745 21.8066C0.989442 29.7783 0.892762 30.6924 0.980653 31.1934C1.25311 32.8105 2.50995 34.1729 4.11835 34.5947C4.57538 34.709 6.03436 34.7266 15.5002 34.7266C24.966 34.7266 26.425 34.709 26.882 34.5947C28.4904 34.1729 29.7473 32.8105 30.0197 31.1934C30.1076 30.6924 30.0109 29.7695 29.0441 21.8066C28.4641 16.9463 27.9367 12.7188 27.8928 12.4111C27.717 11.3828 27.1545 10.4688 26.2844 9.80957C25.4318 9.15918 24.9924 9.03613 23.3664 8.9834L21.9601 8.93066L21.9162 7.17285C21.8635 5.54688 21.8459 5.3623 21.6174 4.71191C20.9055 2.64648 19.4025 1.19629 17.3019 0.537109C16.4846 0.282227 14.9992 0.220703 14.1379 0.414062ZM16.5637 1.80273C18.3654 2.18945 19.9123 3.68359 20.3781 5.50293C20.466 5.86328 20.51 6.46973 20.51 7.49805V8.97461H15.5002H10.4904V7.49805C10.4904 5.23926 10.798 4.34277 11.9758 3.17383C13.2414 1.91699 14.8498 1.44238 16.5637 1.80273ZM9.08417 11.6904V13.0088L9.31268 13.1846C9.65546 13.457 9.98944 13.4219 10.2619 13.0967C10.4816 12.833 10.4904 12.7891 10.4904 11.6025V10.3809H15.5002H20.51V11.5762C20.51 12.7715 20.5627 13.0352 20.8527 13.2549C21.0637 13.4219 21.424 13.3867 21.6877 13.1846L21.9162 13.0088V11.6816V10.3633L23.2609 10.3984C24.7463 10.4336 25.0012 10.5039 25.6955 11.1367C26.258 11.6465 26.4689 12.2002 26.6183 13.5098C26.6887 14.1338 27.1808 18.2207 27.717 22.5977C28.3674 27.8799 28.675 30.6836 28.6398 30.9561C28.5607 31.5449 28.0861 32.3359 27.5851 32.7139C26.7414 33.3555 27.5148 33.3203 15.4914 33.3203C5.7619 33.3203 4.65448 33.3027 4.27655 33.1797C3.37128 32.8721 2.74725 32.2305 2.43964 31.2988L2.28143 30.8242L3.28339 22.6416C3.82831 18.1504 4.32929 14.002 4.39081 13.4395C4.51386 12.3145 4.68085 11.8223 5.1203 11.3213C5.77948 10.583 6.33319 10.3896 7.88007 10.3809H9.08417V11.6904Z" />
</svg>
