<svg width="15" height="17" viewBox="0 0 15 17" fill="none" xmlns="http://www.w3.org/2000/svg">
<path fill-rule="evenodd" clip-rule="evenodd" d="M2.94629 0.283681C2.01026 0.663564 1.25049 1.35058 0.713872 2.30126C-0.898921 5.16063 0.213872 8.76952 4.12501 13.3623C6.61426 16.2847 7.23047 16.6904 8.28907 16.1006C8.94825 15.7334 12.0088 12.1885 13.0098 10.6343C13.1118 10.4761 13.2251 10.2866 13.3433 10.0796C13.3989 9.98241 13.4556 9.88134 13.5127 9.77782C13.8364 9.18847 14.1719 8.51513 14.3892 8.00585C14.959 6.66991 15.002 6.47216 15 5.19188C14.9976 3.53417 14.6782 2.58153 13.7676 1.5122C12.2549 -0.264171 10.0762 -0.488292 8.27979 0.948232L7.51221 1.56151L6.85108 1.00438C5.6421 -0.0156356 4.29542 -0.264171 2.94629 0.283681Z" fill="#9F9F9F"/>
</svg>
