<svg width="35" height="29" viewBox="0 0 35 29" fill="none" xmlns="http://www.w3.org/2000/svg">
<path d="M2.43433 4.35845C3.91231 2.50903 6.0788 1.30213 8.59413 0.928773C8.72265 0.902725 9.20001 0.885361 9.65901 0.876678C12.156 0.841947 14.5152 1.78836 16.7552 3.71593L17.4987 4.34976L18.2423 3.71593C19.5367 2.60454 20.8311 1.84046 22.2448 1.36291C26.7981 -0.191298 31.994 2.09226 33.8025 6.4423C33.9218 6.74619 34.1146 7.38003 34.2156 7.85758C34.3808 8.59561 34.3992 8.91687 34.3533 10.0283C34.3257 10.8618 34.2431 11.6085 34.1238 12.0948C32.71 17.9469 27.0184 24.5371 20.62 27.7323C19.298 28.3922 17.8017 29 17.4987 29C17.1958 29 15.6995 28.3922 14.3959 27.741C9.43869 25.2578 4.83032 20.7341 2.35171 15.9325C1.18585 13.675 0.717666 12.0687 0.635046 10.0717C0.543246 7.76207 1.07569 6.06894 2.43433 4.35845Z" fill="#1C1C1C"/>
</svg>
