<svg width="15" height="17" viewBox="0 0 15 17" fill="none" xmlns="http://www.w3.org/2000/svg">
<path fill-rule="evenodd" clip-rule="evenodd" d="M2.94608 0.283664C2.01016 0.663648 1.25026 1.35062 0.713894 2.30126C-0.89899 5.16069 0.21398 8.76951 4.12513 13.3622C6.6141 16.2848 7.23064 16.6903 8.28915 16.1004C8.9481 15.7334 12.009 12.1887 13.0096 10.6343C13.4315 9.97887 14.0524 8.79611 14.3893 8.00579C14.959 6.67005 15.002 6.47221 14.9999 5.19173C14.9973 3.53433 14.6781 2.5813 13.7676 1.51213C12.2548 -0.26431 10.0762 -0.488241 8.27985 0.948124L7.51241 1.56159L6.85128 1.00423C5.64201 -0.0156494 4.29521 -0.264139 2.94608 0.283664ZM5.56155 1.66614C5.88108 1.84044 6.40089 2.29921 6.71664 2.68568C7.03239 3.07197 7.39491 3.38817 7.52228 3.38817C7.64966 3.38817 8.01218 3.07197 8.32793 2.68568C9.70538 1.00014 11.6336 0.907874 12.946 2.46482C13.6205 3.26503 13.83 3.88532 13.8353 5.09724C13.8412 6.45498 13.3182 7.82586 12.0256 9.84038C10.9661 11.4913 7.91443 14.9855 7.53187 14.9855C7.14379 14.9855 4.08287 11.4981 3.02785 9.85403C1.39274 7.30602 0.841559 5.35307 1.33189 3.84524C1.98706 1.83089 3.98106 0.803669 5.56155 1.66614Z" fill="#9F9F9F"/>
</svg>
