<svg width="35" height="29" viewBox="0 0 35 29" fill="none" xmlns="http://www.w3.org/2000/svg">
<path d="M8.59413 0.928774C6.0788 1.30213 3.91231 2.50903 2.43433 4.35845C1.07569 6.06894 0.543246 7.76207 0.635046 10.0717C0.717666 12.0687 1.18585 13.675 2.35171 15.9325C4.83032 20.7341 9.43869 25.2577 14.3959 27.741C15.6995 28.3922 17.1958 29 17.4987 29C17.8017 29 19.298 28.3922 20.62 27.7323C27.0184 24.5371 32.71 17.9469 34.1238 12.0947C34.2431 11.6085 34.3257 10.8618 34.3533 10.0283C34.3992 8.91687 34.3808 8.59561 34.2156 7.85758C34.1146 7.38003 33.9218 6.74619 33.8025 6.4423C31.994 2.09226 26.7981 -0.191296 22.2448 1.36291C20.8311 1.84046 19.5367 2.60454 18.2423 3.71593L17.4987 4.34976L16.7552 3.71593C14.5152 1.78836 12.156 0.841948 9.65901 0.876678C9.20001 0.885361 8.72265 0.902725 8.59413 0.928774ZM11.6694 2.4743C12.4956 2.68268 13.992 3.40335 14.7998 3.98509C15.2037 4.26294 15.9106 4.87073 16.3696 5.33091C17.4987 6.4423 17.4987 6.4423 18.6279 5.33091C19.6928 4.2803 20.6842 3.577 21.8593 3.03868C23.172 2.43088 23.732 2.30933 25.21 2.30933C26.229 2.30064 26.5778 2.33537 27.1653 2.50035C29.4328 3.11682 31.2871 4.59288 32.2327 6.53781C32.7743 7.64051 32.8661 8.12675 32.8753 9.72437C32.8753 11.0181 32.8477 11.2438 32.6091 12.1034C31.9297 14.5867 30.5527 17.0786 28.4046 19.7008C27.5142 20.7775 25.0447 23.1565 23.9248 23.9988C22.5937 25.0059 20.7301 26.126 19.1971 26.838C18.3892 27.2114 17.6273 27.5239 17.4987 27.5239C17.1407 27.5239 14.451 26.2302 13.23 25.4661C7.95152 22.1754 3.65527 16.8702 2.37007 12.0687C2.15893 11.2699 2.13139 10.9834 2.12221 9.72437C2.12221 8.49142 2.14975 8.19621 2.33335 7.61447C3.16873 4.86205 5.53718 2.89107 8.68593 2.30933C9.13575 2.23118 11.1278 2.33537 11.6694 2.4743Z" fill="#1C1C1C"/>
</svg>
