<svg xmlns="http://www.w3.org/2000/svg" version="1.1" xmlns:xlink="http://www.w3.org/1999/xlink" width="512" height="512" x="0" y="0" viewBox="0 0 512 512" style="enable-background:new 0 0 512 512" xml:space="preserve" class=""><g><path fill="#fffbb3" d="m487.025 235.25 16.701-42.55C475.82 88.074 380.418 10.998 266.998 10.998c-44.615 0-86.434 11.938-122.462 32.776L119.025 89.25l-22.154-9.52C51.66 123.383 23.186 184.26 22.049 251.801l43.643 22.449-29.987 62.704c33.433 95.527 124.354 164.048 231.293 164.048 129.148 0 234.951-99.928 244.321-226.683z" opacity="1" data-original="#fffbb3" class=""></path><path fill="#78b600" d="M182.328 174.546c-1.471-15.834-14.764-29.142-31.984-29.142-17.216 0-30.508 13.303-31.983 29.134-.518 5.555-5.367 9.71-10.911 9.093-20.839-2.32-40.48 13.415-42.131 34.769-.391 5.053-4.582 9.016-9.65 9.085-18.071.245-33.506 13.513-36.817 30.979a20.838 20.838 0 0 1 2.796-.207l136.877 35.494 33.194-110.075c-4.884-.223-8.923-4.09-9.391-9.13z" opacity="1" data-original="#78b600"></path><ellipse cx="102.471" cy="84.299" fill="#78b600" rx="21.59" ry="33.472" transform="rotate(-63.33 102.45 84.266)" opacity="1" data-original="#78b600"></ellipse><g fill="#a3d92e"><ellipse cx="138.263" cy="69.976" rx="36.769" ry="23.716" transform="rotate(-63.33 138.231 69.944)" fill="#a3d92e" opacity="1" data-original="#a3d92e"></ellipse><circle cx="230.668" cy="138.893" r="20.239" fill="#a3d92e" opacity="1" data-original="#a3d92e"></circle><path d="m241.192 293.75 4.173-66.249c-5.888-.138-9.629-4.379-9.988-9.097-1.627-21.434-21.345-37.062-42.133-34.766a9.757 9.757 0 0 1-1.525.037c-15.754 1.991-26.453 15.93-25.53 30.849.314 5.078-3.472 9.504-8.555 9.727-18.034.79-32.838 15.93-33.169 34.005z" fill="#a3d92e" opacity="1" data-original="#a3d92e"></path></g><path fill="#cefc5b" d="M245.365 227.501c-14.915 2.87-24.549 16.416-23.674 30.558.004.066 0 .131.002.197l32.832 17.994 25.654-23.798c-5.298-14.329-19.058-24.583-34.814-24.951z" opacity="1" data-original="#cefc5b"></path><circle cx="161.192" cy="218.083" r="17.333" fill="#cefc5b" transform="rotate(-45 161.164 218.129)" opacity="1" data-original="#cefc5b"></circle><path fill="#a15240" d="M124.465 258.256H21.648c-10.093 0-18.725 7.22-20.557 17.146A65.517 65.517 0 0 0 0 287.305c0 54.837 68.544 99.292 153.098 99.292 13.493 0 26.574-1.138 39.038-3.264l9.89-85.583z" opacity="1" data-original="#a15240"></path><path fill="#b66651" d="m389.097 223.339-116.082 31.027a111.174 111.174 0 0 1-29.146 3.89H124.465s-21.125 89.216 67.671 125.077c36.413-6.211 67.526-20.897 88.011-40.617 20.736-19.962 46.666-33.685 75.027-38.594l67.196-12.825 16.156-49.298z" opacity="1" data-original="#b66651" class=""></path><path fill="#ce7867" d="M512 256c0-21.891-2.887-43.105-8.273-63.3l-114.629 30.639c-.651 18.767 2.978 51.69 33.272 67.958l88.95-16.977c.446-6.049.68-12.157.68-18.32z" opacity="1" data-original="#ce7867"></path></g></svg>