<svg xmlns="http://www.w3.org/2000/svg" version="1.1" xmlns:xlink="http://www.w3.org/1999/xlink" width="512" height="512" x="0" y="0" viewBox="0 0 3872.983 3872.983" style="enable-background:new 0 0 512 512" xml:space="preserve" class=""><g><path fill="#f0f0f0" fill-rule="evenodd" d="M1498.722 2247.073c22.767 22.767 59.812 22.767 82.58 0l46.991-46.991 105.079-105.079-82.593-82.569-105.052 105.052-47.005 47.005c-22.77 22.767-22.77 59.813 0 82.582zm2.294-471.611c128.5-126.063 335.044-126.342 463.89-.841a59.04 59.04 0 0 1 6.27 6.27c125.573 128.924 125.216 335.636-1.071 464.12a60.037 60.037 0 0 1-2.044 2.158 57.07 57.07 0 0 1-2.075 1.961c-129.536 127.309-338.487 126.718-467.264-2.057-128.637-128.639-129.366-337.586-2.187-467.132a58.697 58.697 0 0 1 4.481-4.479zm740.448 203.416c-32.221 0-58.367-26.143-58.367-58.365 0-32.22 26.146-58.365 58.367-58.365l79.302-.002c32.219 0 58.365 26.145 58.365 58.365 0 32.221-26.146 58.367-58.365 58.367zm230.665 125.318c0-32.219 26.146-58.365 58.367-58.365l79.302-.002c32.219 0 58.365 26.146 58.365 58.365 0 32.222-26.146 58.37-58.365 58.37h-79.302c-32.221-.001-58.367-26.146-58.367-58.368zm305.34 321.352H1186.342v-109.982h76.214c32.222 0 58.367-26.143 58.365-58.367v-489.692c0-32.221-26.145-58.367-58.365-58.367h-76.214v-109.979l1591.127.002zm-536.005-262.985h79.302c32.219 0 58.365-26.147 58.365-58.37 0-32.219-26.146-58.365-58.365-58.365l-79.302.002c-32.221 0-58.367 26.146-58.367 58.365 0 32.223 26.145 58.368 58.367 58.368zm289.032 183.585h79.302c32.219 0 58.365-26.144 58.365-58.365s-26.146-58.365-58.365-58.365h-79.302c-32.221 0-58.367 26.143-58.367 58.365 0 32.221 26.146 58.365 58.367 58.365zm-347.399-58.365c0 32.221 26.146 58.365 58.367 58.365h79.302c32.219 0 58.365-26.144 58.365-58.365s-26.146-58.365-58.365-58.365h-79.302c-32.222 0-58.367 26.144-58.367 58.365zm347.399-308.905h79.302c32.219 0 58.365-26.146 58.365-58.367 0-32.22-26.146-58.365-58.365-58.365l-79.302.002c-32.221 0-58.367 26.145-58.367 58.365 0 32.222 26.146 58.365 58.367 58.365zm-289.032-183.587h79.302c32.219 0 58.365-26.145 58.365-58.365 0-32.221-26.146-58.367-58.365-58.367h-79.302c-32.221 0-58.367 26.146-58.367 58.367 0 32.22 26.145 58.365 58.367 58.365zm289.032 0h79.302c32.219 0 58.365-26.145 58.365-58.365 0-32.221-26.146-58.367-58.365-58.367h-79.302c-32.221 0-58.367 26.146-58.367 58.367 0 32.22 26.146 58.365 58.367 58.365z" clip-rule="evenodd" opacity="1" data-original="#f0f0f0" class=""></path><path fill-rule="evenodd" d="M3136.636 2805.265H740.444c-32.221 0-58.365-26.144-58.365-58.365l-.002-1469.089c0-32.221 26.143-58.367 58.365-58.367h2396.194c32.22 0 58.365 26.146 58.365 58.367v1469.086c.002 32.224-26.143 58.368-58.365 58.368zM798.808 2688.533h2279.461V1336.176H798.808z" clip-rule="evenodd" fill="#000000" opacity="1" data-original="#000000" class=""></path><path fill-rule="evenodd" d="M1134.919 3113.592H877.341c-32.221 0-58.367-26.146-58.367-58.365V2746.9c0-32.221 26.146-58.365 58.367-58.365l387.529-.002c41.678 0 69.944 42.642 53.737 81.132l-129.95 308.327c-9.069 21.513-30.293 35.6-53.738 35.6zm-199.213-116.734h160.434l80.749-191.593H935.706zM2999.74 3113.592h-257.581c-23.441 0-44.666-14.087-53.831-35.696l-129.95-308.327c-16.207-38.396 11.963-81.134 53.735-81.134h387.534c32.221 0 58.365 26.146 58.365 58.367v308.327c.096 32.317-26.049 58.463-58.272 58.463zm-218.8-116.734h160.435v-191.593h-241.182zM2835.834 2542.28H1127.975c-32.221 0-58.365-26.146-58.365-58.367v-226.709c0-32.221 26.143-58.367 58.365-58.367s58.365 26.146 58.365 58.367v168.344h1591.129v-826.384l-1591.129-.002v168.344c0 32.221-26.143 58.365-58.365 58.365-32.221 0-58.365-26.143-58.365-58.365v-226.711c0-32.219 26.143-58.365 58.365-58.365h1707.859c32.221 0 58.365 26.146 58.365 58.365v943.119c.097 32.222-26.048 58.366-58.365 58.366z" clip-rule="evenodd" fill="#000000" opacity="1" data-original="#000000" class=""></path><path fill-rule="evenodd" d="M1262.554 2315.569H993.493c-32.22 0-58.365-26.146-58.365-58.365v-489.696c0-32.221 26.145-58.365 58.365-58.365l269.061-.002c32.221 0 58.366 26.143 58.366 58.365v489.696c.003 32.221-26.142 58.367-58.366 58.367zm-210.694-116.735h152.233V1825.87l-152.233.002zM2320.766 1795.291h-79.302c-32.221 0-58.365-26.145-58.365-58.367 0-32.219 26.143-58.365 58.365-58.365h79.302c32.221 0 58.365 26.146 58.365 58.365 0 32.222-26.143 58.367-58.365 58.367zM2609.799 1795.291h-79.302c-32.221 0-58.365-26.145-58.365-58.367 0-32.219 26.143-58.365 58.365-58.365h79.302c32.221 0 58.365 26.146 58.365 58.365 0 32.222-26.144 58.367-58.365 58.367zM2320.766 1978.878h-79.302c-32.221 0-58.365-26.143-58.365-58.365s26.143-58.365 58.365-58.365l79.302-.002c32.221 0 58.365 26.143 58.365 58.365 0 32.221-26.143 58.367-58.365 58.367zM2609.799 1978.878h-79.302c-32.221 0-58.365-26.143-58.365-58.365s26.143-58.365 58.365-58.365l79.302-.002c32.221 0 58.365 26.143 58.365 58.365 0 32.221-26.144 58.367-58.365 58.367zM2320.766 2162.563h-79.302c-32.221 0-58.365-26.144-58.365-58.365s26.143-58.365 58.365-58.365l79.302-.002c32.221 0 58.365 26.144 58.365 58.365 0 32.222-26.143 58.367-58.365 58.367zM2609.799 2162.563h-79.302c-32.221 0-58.365-26.144-58.365-58.365s26.143-58.365 58.365-58.365l79.302-.002c32.221 0 58.365 26.144 58.365 58.365 0 32.222-26.144 58.367-58.365 58.367zM2320.766 2346.15h-79.302c-32.221 0-58.365-26.146-58.365-58.367 0-32.22 26.143-58.365 58.365-58.365h79.302c32.221 0 58.365 26.145 58.365 58.365 0 32.221-26.143 58.367-58.365 58.367zM2609.799 2346.15h-79.302c-32.221 0-58.365-26.146-58.365-58.367 0-32.22 26.143-58.365 58.365-58.365h79.302c32.221 0 58.365 26.145 58.365 58.365 0 32.221-26.144 58.367-58.365 58.367zM1498.719 2247.073c-129.37-129.371-129.37-339.971 0-469.342 129.373-129.37 339.971-129.37 469.341 0 129.371 129.371 129.371 339.971 0 469.342-129.37 129.368-339.874 129.467-469.341 0zm82.582-386.857c-83.836 83.836-83.836 220.343 0 304.275 83.837 83.837 220.343 83.837 304.276 0 83.836-83.833 83.836-220.343 0-304.275-83.834-83.834-220.345-83.93-304.276 0z" clip-rule="evenodd" fill="#000000" opacity="1" data-original="#000000" class=""></path><path fill-rule="evenodd" d="M1498.719 2247.073c-22.767-22.767-22.767-59.813 0-82.583l386.858-386.855c22.767-22.769 59.812-22.769 82.582 0 22.767 22.767 22.767 59.717 0 82.58l-386.858 386.858c-22.767 22.768-59.812 22.768-82.582 0z" clip-rule="evenodd" fill="#000000" opacity="1" data-original="#000000" class=""></path><path fill-rule="evenodd" d="m1885.481 2247.073-386.858-386.759c-22.767-22.77-22.767-59.717 0-82.583 22.767-22.865 59.717-22.767 82.582 0l386.855 386.857c22.767 22.767 22.767 59.717 0 82.58-22.864 22.673-59.812 22.673-82.579-.095zM3428.081 1160.018c-116.249 0-210.792-94.542-210.792-210.793 0-116.249 94.542-210.792 210.792-210.792s210.793 94.444 210.793 210.693c-.001 116.253-94.543 210.892-210.793 210.892zm0-304.951c-51.903 0-94.062 42.158-94.062 94.06 0 51.905 42.16 94.063 94.062 94.063 51.903 0 94.063-42.158 94.063-94.063 0-51.902-42.257-94.06-94.063-94.06z" clip-rule="evenodd" fill="#000000" opacity="1" data-original="#000000" class=""></path><path fill-rule="evenodd" d="M3428.081 1473.651h-291.444c-32.221 0-58.367-26.146-58.367-58.365 0-32.222 26.146-58.367 58.367-58.367l233.077-.002v-255.363c0-32.219 26.144-58.365 58.365-58.365 32.222 0 58.365 26.146 58.365 58.365v313.732c.001 32.316-26.141 58.365-58.363 58.365zM448.999 1160.018c-116.252 0-210.794-94.542-210.794-210.793 0-116.249 94.543-210.792 210.794-210.792 116.25 0 210.793 94.444 210.793 210.693 0 116.253-94.543 210.892-210.793 210.892zm0-304.951c-51.904 0-94.062 42.158-94.062 94.06 0 51.905 42.158 94.063 94.062 94.063 51.903 0 94.061-42.158 94.061-94.063 0-51.902-42.158-94.06-94.061-94.06z" clip-rule="evenodd" fill="#000000" opacity="1" data-original="#000000" class=""></path><path fill-rule="evenodd" d="M740.444 1473.651H448.999c-32.221 0-58.366-26.146-58.366-58.365v-313.732c0-32.219 26.145-58.365 58.366-58.365 32.22 0 58.365 26.146 58.365 58.365v255.363h233.08c32.222 0 58.365 26.145 58.365 58.367-.001 32.318-26.143 58.367-58.365 58.367zM3428.081 3286.374c-116.249 0-210.792-94.542-210.792-210.794 0-116.25 94.542-210.792 210.792-210.792s210.793 94.542 210.793 210.792c-.001 116.252-94.543 210.794-210.793 210.794zm0-304.852c-51.903 0-94.062 42.158-94.062 94.061 0 51.904 42.16 94.062 94.062 94.062 51.903 0 94.063-42.158 94.063-94.062 0-51.903-42.257-94.061-94.063-94.061z" clip-rule="evenodd" fill="#000000" opacity="1" data-original="#000000" class=""></path><path fill-rule="evenodd" d="M3428.081 2981.522c-32.221 0-58.365-26.146-58.365-58.367v-255.363l-233.08-.002c-32.221 0-58.367-26.143-58.367-58.365 0-32.221 26.146-58.365 58.367-58.365h291.444c32.222 0 58.365 26.144 58.365 58.365v313.73c0 32.221-26.142 58.367-58.364 58.367zM448.999 3286.374c-116.252 0-210.794-94.542-210.794-210.794 0-116.25 94.543-210.792 210.794-210.792 116.25 0 210.793 94.542 210.793 210.792 0 116.252-94.543 210.794-210.793 210.794zm0-304.852c-51.904 0-94.062 42.158-94.062 94.061 0 51.904 42.158 94.062 94.062 94.062 51.903 0 94.061-42.158 94.061-94.062 0-51.903-42.158-94.061-94.061-94.061z" clip-rule="evenodd" fill="#000000" opacity="1" data-original="#000000" class=""></path><path fill-rule="evenodd" d="M448.999 2981.522c-32.221 0-58.366-26.146-58.366-58.367v-313.73c0-32.221 26.145-58.365 58.366-58.365h291.444c32.222 0 58.365 26.144 58.365 58.365 0 32.222-26.143 58.365-58.365 58.365H507.366v255.363c0 32.223-26.145 58.369-58.367 58.369zM1145.918 1011.45c-116.25 0-210.793-94.542-210.793-210.794 0-116.25 94.542-210.793 210.793-210.793 116.252 0 210.794 94.542 210.794 210.793 0 116.252-94.542 210.794-210.794 210.794zm0-304.855c-51.903 0-94.061 42.158-94.061 94.061 0 51.904 42.158 94.062 94.061 94.062 51.904 0 94.062-42.158 94.062-94.062 0-51.903-42.158-94.061-94.062-94.061z" clip-rule="evenodd" fill="#000000" opacity="1" data-original="#000000" class=""></path><path fill-rule="evenodd" d="M1145.918 1336.176c-32.22 0-58.365-26.146-58.365-58.365V953.083c0-32.219 26.145-58.365 58.365-58.365 32.221 0 58.366 26.146 58.366 58.365v324.728c.003 32.219-26.142 58.365-58.366 58.365zM1497.949 3434.848c-116.252 0-210.794-94.542-210.794-210.795 0-116.249 94.542-210.792 210.794-210.792 116.25 0 210.793 94.542 210.793 210.792 0 116.253-94.542 210.795-210.793 210.795zm0-304.855c-51.905 0-94.063 42.158-94.063 94.06 0 51.905 42.158 94.063 94.063 94.063 51.903 0 94.061-42.158 94.061-94.063 0-51.902-42.256-94.06-94.061-94.06z" clip-rule="evenodd" fill="#000000" opacity="1" data-original="#000000" class=""></path><path fill-rule="evenodd" d="M1497.949 3129.993c-32.221 0-58.367-26.146-58.367-58.367V2746.9c0-32.221 26.146-58.365 58.367-58.365 32.219 0 58.365 26.143 58.365 58.365v324.726c0 32.221-26.146 58.367-58.365 58.367zM2379.131 3434.848c-116.25 0-210.793-94.542-210.793-210.795 0-116.249 94.543-210.792 210.793-210.792 116.249 0 210.792 94.542 210.792 210.792.098 116.25-94.543 210.795-210.792 210.795zm0-304.855c-51.903 0-94.063 42.158-94.063 94.06 0 51.905 42.161 94.063 94.063 94.063s94.062-42.158 94.062-94.063c0-51.902-42.159-94.06-94.062-94.06z" clip-rule="evenodd" fill="#000000" opacity="1" data-original="#000000" class=""></path><path fill-rule="evenodd" d="M2379.131 3129.993c-32.222 0-58.365-26.146-58.365-58.367V2746.9c0-32.221 26.143-58.365 58.365-58.365 32.221 0 58.365 26.143 58.365 58.365v324.726c0 32.221-26.048 58.367-58.365 58.367zM1938.539 871.371c-116.25 0-210.793-94.543-210.793-210.792 0-116.252 94.542-210.795 210.793-210.795 116.252 0 210.794 94.543 210.794 210.795 0 116.249-94.542 210.792-210.794 210.792zm0-304.855c-51.903 0-94.061 42.158-94.061 94.063 0 51.903 42.158 94.061 94.061 94.061 51.905 0 94.063-42.158 94.063-94.061 0-51.905-42.158-94.063-94.063-94.063z" clip-rule="evenodd" fill="#000000" opacity="1" data-original="#000000" class=""></path><path fill-rule="evenodd" d="M1938.539 1336.176c-32.22 0-58.365-26.146-58.365-58.365V813.005c0-32.222 26.145-58.367 58.365-58.367 32.221 0 58.367 26.145 58.367 58.367v464.807c0 32.218-26.146 58.364-58.367 58.364zM2731.162 1011.45c-116.252 0-210.794-94.542-210.794-210.794 0-116.25 94.542-210.793 210.794-210.793 116.25 0 210.793 94.542 210.793 210.793 0 116.252-94.545 210.794-210.793 210.794zm0-304.855c-51.905 0-94.063 42.158-94.063 94.061 0 51.904 42.158 94.062 94.063 94.062 51.903 0 94.061-42.158 94.061-94.062 0-51.903-42.16-94.061-94.061-94.061z" clip-rule="evenodd" fill="#000000" opacity="1" data-original="#000000" class=""></path><path fill-rule="evenodd" d="M2731.162 1336.176c-32.221 0-58.367-26.146-58.367-58.365l-.002-324.728c0-32.219 26.146-58.365 58.367-58.365 32.22 0 58.365 26.146 58.365 58.365v324.728c.002 32.219-26.143 58.365-58.363 58.365z" clip-rule="evenodd" fill="#000000" opacity="1" data-original="#000000" class=""></path><g fill-rule="evenodd" clip-rule="evenodd"><path fill="#4db6ac" d="M1127.975 1482.432h1707.859c32.221 0 58.365 26.143 58.365 58.365v943.116c.098 32.224-26.047 58.365-58.365 58.365H1127.975c-32.219 0-58.365-26.144-58.365-58.365v-168.346h-76.115c-32.222 0-58.367-26.143-58.367-58.365V1767.51c0-32.222 26.145-58.367 58.367-58.367h76.115v-168.346c0-32.222 26.146-58.365 58.365-58.365zm1950.294 1126.993V1336.177H798.811v1352.357l78.53.002 387.531-.002 233.077.002h881.182l229.527-.002a61.648 61.648 0 0 1 3.454-.098h387.534c1.145 0 2.283.034 3.412.098h75.211z" opacity="1" data-original="#4db6ac"></path><path fill="#f0f0f0" d="M1204.093 2198.834v-372.962h-76.118l-76.115.003v372.959l76.115.003z" opacity="1" data-original="#f0f0f0" class=""></path><path fill="#ef7385" d="M1921.098 2117.625c36.455-65.079 36.473-145.264.053-210.401l-105.229 105.229zM1733.343 1929.869l105.246-105.246c-65.108-36.433-145.307-36.437-210.428.067zM1545.727 2117.486l105.052-105.052-105.133-105.108c-36.321 65.036-36.294 145.103.081 210.16zM1838.5 2200.106l-105.129-105.104-105.079 105.079c65.035 36.375 145.127 36.382 210.208.025z" opacity="1" data-original="#ef7385"></path><path fill="#f0f0f0" d="m1096.139 2996.858 80.749-191.593H935.706v191.593zM2941.375 2996.858v-191.593h-241.182l80.746 191.593z" opacity="1" data-original="#f0f0f0" class=""></path><path fill="#fcd770" d="M3428.081 1043.19c51.903 0 94.063-42.158 94.063-94.063 0-51.902-42.257-94.06-94.063-94.06-51.903 0-94.061 42.158-94.061 94.06 0 51.905 42.158 94.063 94.061 94.063zM2731.16 894.718c51.905 0 94.063-42.158 94.063-94.062 0-51.903-42.16-94.061-94.063-94.061s-94.061 42.158-94.061 94.061c0 51.904 42.158 94.062 94.061 94.062zM1938.943 754.64c51.718-.219 93.659-42.294 93.659-94.061 0-51.903-42.16-94.063-94.063-94.063s-94.063 42.16-94.063 94.063c0 51.767 41.942 93.842 93.659 94.061.134-.002.27-.002.404 0zM1145.92 894.718c51.903 0 94.061-42.158 94.061-94.062 0-51.903-42.158-94.061-94.061-94.061-51.904 0-94.062 42.158-94.062 94.061-.001 51.904 42.157 94.062 94.062 94.062zM448.999 1043.19c51.903 0 94.061-42.158 94.061-94.063 0-51.902-42.158-94.06-94.061-94.06-51.902 0-94.062 42.158-94.062 94.06 0 51.905 42.16 94.063 94.062 94.063zM448.999 3169.645c51.903 0 94.061-42.16 94.061-94.062 0-51.903-42.158-94.061-94.061-94.061-51.902 0-94.062 42.158-94.062 94.061 0 51.901 42.16 94.062 94.062 94.062zM1497.949 3318.116c51.903 0 94.063-42.16 94.063-94.063 0-51.902-42.256-94.06-94.063-94.06-51.903 0-94.063 42.158-94.063 94.06 0 51.903 42.161 94.063 94.063 94.063zM2379.131 3318.116c51.903 0 94.062-42.16 94.062-94.063 0-51.902-42.16-94.06-94.062-94.06s-94.063 42.158-94.063 94.06c0 51.903 42.161 94.063 94.063 94.063zM3428.081 3169.645c51.903 0 94.063-42.16 94.063-94.062 0-51.903-42.257-94.061-94.063-94.061-51.903 0-94.061 42.158-94.061 94.061 0 51.901 42.158 94.062 94.061 94.062z" opacity="1" data-original="#fcd770" class=""></path></g></g></svg>