<svg width="49" height="44" viewBox="0 0 49 44" fill="none" xmlns="http://www.w3.org/2000/svg">
<path d="M23.6047 15.15C19.5447 15.15 16.2197 18.475 16.2197 22.535C16.2197 26.595 19.5447 29.92 23.6047 29.92C27.6647 29.92 30.9547 26.595 30.9547 22.535C30.9547 18.475 27.6297 15.15 23.6047 15.15ZM23.6047 28.17C20.4897 28.17 17.9697 25.65 17.9697 22.535C17.9697 19.42 20.4897 16.9 23.6047 16.9C26.6847 16.9 29.2047 19.42 29.2047 22.535C29.2047 25.65 26.6847 28.17 23.6047 28.17Z" fill="#EFEFEF"/>
<path d="M31.8293 10.985C31.0593 10.985 30.3593 11.265 29.8343 11.79C29.3093 12.315 29.0293 13.015 29.0293 13.785C29.0293 14.555 29.3093 15.255 29.8343 15.78C30.3593 16.305 31.0593 16.585 31.8293 16.585C32.5993 16.585 33.2993 16.305 33.8243 15.78C34.3143 15.29 34.6293 14.59 34.6643 13.82V13.785C34.6643 13.05 34.3493 12.35 33.8593 11.86C33.3343 11.3 32.5993 10.985 31.8293 10.985ZM32.5643 14.52C32.1793 14.905 31.4443 14.905 31.0593 14.52C30.8493 14.31 30.7443 14.065 30.7443 13.785C30.7443 13.505 30.8493 13.225 31.0593 13.05C31.2693 12.84 31.5143 12.735 31.7943 12.735C32.0743 12.735 32.3543 12.84 32.5643 13.05C32.7393 13.225 32.8793 13.505 32.8793 13.75C32.8793 14.065 32.7743 14.345 32.5643 14.52Z" fill="#EFEFEF"/>
<path d="M29.7295 7.45001H17.4445C12.5095 7.45001 8.51953 11.44 8.51953 16.375V28.695C8.51953 33.63 12.5095 37.62 17.4445 37.62H29.7645C34.6995 37.62 38.6895 33.63 38.6895 28.695V16.375C38.6545 11.44 34.6645 7.45001 29.7295 7.45001ZM36.9045 28.695C36.9045 32.65 33.6845 35.87 29.7295 35.87H17.4445C13.4895 35.87 10.2695 32.65 10.2695 28.695V16.375C10.2695 12.42 13.4895 9.20001 17.4445 9.20001H29.7645C33.7195 9.20001 36.9395 12.42 36.9395 16.375V28.695H36.9045Z" fill="#EFEFEF"/>
</svg>
