<svg width="31" height="31" viewBox="0 0 31 31" fill="none" xmlns="http://www.w3.org/2000/svg">
<path d="M21.7295 0.450012H9.44453C4.50953 0.450012 0.519531 4.44001 0.519531 9.37501V21.695C0.519531 26.63 4.50953 30.62 9.44453 30.62H21.7645C26.6995 30.62 30.6895 26.63 30.6895 21.695V9.37501C30.6545 4.44001 26.6645 0.450012 21.7295 0.450012ZM28.9045 21.695C28.9045 25.65 25.6845 28.87 21.7295 28.87H9.44453C5.48953 28.87 2.26953 25.65 2.26953 21.695V9.37501C2.26953 5.42001 5.48953 2.20001 9.44453 2.20001H21.7645C25.7195 2.20001 28.9395 5.42001 28.9395 9.37501V21.695H28.9045Z" fill="#EFEFEF"/>
</svg>
