<svg width="226" height="32" viewBox="0 0 226 32" fill="none" xmlns="http://www.w3.org/2000/svg">
<path d="M57.1396 3.34425H0.0175781V0.671875H39H87.5L148.334 0.672375L226 0.671875V3.34425C226 3.34425 166.874 3.30083 166.373 3.34425C164.801 3.48045 163.904 3.49969 162.364 3.84692C159.457 4.50292 157.928 5.36377 155.349 6.86295C152.335 8.61537 150.953 10.0865 148.334 12.3923C145.215 15.1396 143.982 17.2368 140.818 19.9324C138.044 22.2961 136.418 23.5746 133.302 25.4618C129.254 27.9136 126.827 29.1887 122.279 30.4885C118.845 31.47 116.998 32.0424 113.26 31.9965C109.91 31.9554 107.748 31.6711 104.741 30.9912C100.027 29.9249 97.4798 28.7511 93.2167 26.4671C89.243 24.3381 87.1902 22.7853 83.6964 19.9324C81.2259 17.9151 80.1082 16.4755 77.6835 14.403C75.0316 12.1363 73.5664 10.8138 70.6685 8.87363C68.4074 7.35975 67.1577 6.42146 64.6557 5.35493C61.8599 4.16313 58.1418 3.34418 57.1396 3.34425Z" fill="black"/>
</svg>
