<svg width="136" height="115" viewBox="0 0 136 115" xmlns="http://www.w3.org/2000/svg">
<path d="M4.53798 109.966V98.5651H0.0743932V96.947H10.8428V98.5651H6.37921V109.966H4.53798ZM10.2432 109.966L16.1388 96.947H17.98L23.8943 109.966H21.9415L16.6782 97.9885H17.4221L12.1588 109.966H10.2432ZM12.7539 106.711L13.2561 105.223H20.5838L21.1232 106.711H12.7539ZM27.7677 109.966V98.5651H23.3041V96.947H34.0725V98.5651H29.6089V109.966H27.7677ZM36.0981 109.966V96.947H37.958V109.966H36.0981ZM43.4922 106.823L43.3993 104.554L50.7828 96.947H52.903L47.1933 102.973L46.1518 104.126L43.4922 106.823ZM41.8556 109.966V96.947H43.7154V109.966H41.8556ZM51.0804 109.966L45.7426 103.754L46.9887 102.378L53.2564 109.966H51.0804ZM52.725 109.966L58.6207 96.947H60.4619L66.3761 109.966H64.4233L59.16 97.9885H59.9039L54.6406 109.966H52.725ZM55.2358 106.711L55.7379 105.223H63.0656L63.605 106.711H55.2358ZM76.3072 109.966L71.9552 96.947H73.8708L77.8694 108.962H76.9023L81.0498 96.947H82.7608L86.8152 108.962H85.8853L89.9397 96.947H91.7066L87.3546 109.966H85.4018L81.6077 98.8254H82.1099L78.2972 109.966H76.3072ZM95.6741 102.564H102.369V104.145H95.6741V102.564ZM95.8415 108.348H103.43V109.966H93.9817V96.947H103.169V98.5651H95.8415V108.348ZM104.47 109.966L110.365 96.947H112.207L118.121 109.966H116.168L110.905 97.9885H111.649L106.385 109.966H104.47ZM106.98 106.711L107.483 105.223H114.81L115.35 106.711H106.98ZM120.063 109.966V96.947H125.14C126.281 96.947 127.254 97.1268 128.06 97.4864C128.866 97.8459 129.486 98.3667 129.92 99.0486C130.354 99.7306 130.571 100.543 130.571 101.485C130.571 102.427 130.354 103.239 129.92 103.921C129.486 104.591 128.866 105.105 128.06 105.465C127.254 105.825 126.281 106.004 125.14 106.004H121.086L121.923 105.149V109.966H120.063ZM128.767 109.966L125.456 105.242H127.446L130.794 109.966H128.767ZM121.923 105.335L121.086 104.424H125.084C126.275 104.424 127.174 104.169 127.781 103.661C128.401 103.14 128.711 102.415 128.711 101.485C128.711 100.555 128.401 99.836 127.781 99.3276C127.174 98.8192 126.275 98.5651 125.084 98.5651H121.086L121.923 97.6352V105.335Z"/>
<path clip-rule="evenodd" d="M31.6275 72.0117C33.6615 71.9951 34.9359 70.4623 36.6814 68.2819C44.269 58.8028 52.5662 48.8106 60.6711 38.9706L79.161 38.9438C65.5855 60.5219 45.0716 87.321 46.8821 87.3096C49.2893 87.2953 51.4696 84.2113 51.4696 84.2113C51.4696 84.2113 63.5044 68.1854 67.643 61.8335C65.6109 75.0203 78.2593 85.7762 78.4678 85.8126C80.3724 86.0336 78.8933 84.5301 78.8933 84.5301C77.4352 82.3744 77.1975 82.5226 73.8577 77.2628C70.3056 72.0697 68.5777 61.7688 73.6853 59.2015C78.7941 56.6338 90.8182 46.1248 92.5161 45.2975C94.2133 44.471 96.307 41.406 93.4796 42.5881C88.9956 44.2103 71.5961 58.1899 70.7024 57.6381C70.8272 57.3902 76.9641 48.1093 82.6406 38.939L134.623 38.8637C136.075 38.3226 136.171 37.1505 135.845 37.0528C121.741 36.7679 102.608 36.7719 83.9277 36.8472C88.0574 30.0973 91.6624 23.7921 92.0992 21.6635C90.1646 18.5983 89.2648 20.4878 89.2648 20.4878C87.5314 24.8389 84.3404 30.5765 80.4591 36.8622C74.2596 36.8905 68.149 36.9247 62.3288 36.9577C72.6919 24.36 82.6387 12.0888 90.2645 1.55225C91.3201 0.0945206 87.4454 -0.800644 86.3986 1.01688C84.9317 3.48153 71.3755 20.4246 58.1601 36.9815C36.5069 37.102 19.8126 37.1728 19.3953 36.7455C19.1718 36.3952 56.671 28.9421 57.0649 28.9751C57.9918 29.0519 56.1798 27.1415 55.3578 27.1624C53.109 27.2209 13.3019 34.3085 13.9562 36.4081C14.5575 39.2967 20.0562 39.0308 20.7368 39.0293L56.567 38.9768C43.7328 55.0607 31.6992 70.2084 31.9797 70.6557C30.9592 71.5509 31.5361 71.8285 31.6275 72.0117Z" />
</svg>
