<svg width="26" height="16" viewBox="0 0 26 16" fill="none" xmlns="http://www.w3.org/2000/svg">
<path d="M16.5131 1.61902H9.48242V13.5228H16.5131V1.61902Z" fill="#7673C0"/>
<path d="M9.92929 7.57061C9.92836 6.424 10.2044 5.29222 10.7364 4.26099C11.2685 3.22976 12.0426 2.32611 13.0002 1.61849C11.8148 0.74069 10.3913 0.194805 8.89229 0.0432284C7.39326 -0.108348 5.87921 0.140498 4.52319 0.761326C3.16717 1.38215 2.02389 2.34991 1.22403 3.55399C0.424171 4.75807 0 6.14989 0 7.57036C0 8.99083 0.424171 10.3827 1.22403 11.5867C2.02389 12.7908 3.16717 13.7586 4.52319 14.3794C5.87921 15.0002 7.39326 15.2491 8.89229 15.0975C10.3913 14.9459 11.8148 14.4 13.0002 13.5222C12.0427 12.8147 11.2686 11.9111 10.7365 10.88C10.2045 9.84882 9.92845 8.71714 9.92929 7.57061Z" fill="#EB001B"/>
<path d="M25.998 7.57072C25.9981 8.99119 25.5739 10.383 24.7741 11.5871C23.9743 12.7912 22.831 13.759 21.475 14.3798C20.119 15.0007 18.605 15.2496 17.1059 15.098C15.6069 14.9465 14.1834 14.4006 12.998 13.5228C13.9544 12.8144 14.7275 11.9105 15.2592 10.8795C15.7908 9.8485 16.067 8.71722 16.067 7.57098C16.067 6.42473 15.7908 5.29345 15.2592 4.26244C14.7275 3.23142 13.9544 2.32759 12.998 1.6191C14.1833 0.741363 15.6068 0.195518 17.1058 0.0439556C18.6048 -0.107607 20.1188 0.141227 21.4748 0.762018C22.8308 1.38281 23.974 2.35051 24.7739 3.55453C25.5738 4.75854 25.998 6.1503 25.998 7.57072Z" fill="#00A1DF"/>
</svg>
