<svg width="27" height="27" viewBox="0 0 27 27" fill="none" xmlns="http://www.w3.org/2000/svg">
<path d="M9.80861 0.105064C6.51271 0.526939 3.709 2.23202 1.92482 4.91268C-1.01951 9.32479 -0.333967 15.2398 3.53322 18.8521C5.57228 20.7594 8.1299 21.7613 10.9424 21.7613C13.3858 21.7613 15.5303 21.0582 17.4287 19.6432L18.1143 19.1246L19.0371 20.0299C19.5469 20.5221 21.3047 22.2623 22.9483 23.8971C26.1914 27.1051 26.1826 27.1051 26.6397 26.6392C26.7891 26.4986 26.8594 26.3316 26.8594 26.1383C26.8594 25.8746 26.5078 25.5055 22.9922 21.981L19.1338 18.1139L19.3096 17.8941C20.4961 16.4176 21.3662 14.5103 21.6826 12.7086C21.8408 11.7945 21.8233 9.76424 21.6299 8.88534C20.707 4.4996 17.5781 1.30038 13.2363 0.307213C12.5069 0.140221 10.4854 0.0171738 9.80861 0.105064ZM13.2803 1.8453C14.2471 2.09139 15.4776 2.65389 16.3301 3.22518C17.0772 3.72616 18.2901 4.96542 18.8086 5.75643C19.8106 7.29452 20.2676 8.73592 20.3291 10.6432C20.4258 13.3678 19.582 15.5738 17.6924 17.5162C15.8731 19.3883 13.5967 20.3551 10.9951 20.3551C7.29494 20.3551 4.12209 18.3687 2.49611 15.0377C-0.237288 9.40389 3.19924 2.79452 9.45705 1.66952C10.4766 1.48495 12.1992 1.56405 13.2803 1.8453Z" fill="#1C1C1C"/>
</svg>
