<svg width="35" height="35" viewBox="0 0 35 35" fill="none" xmlns="http://www.w3.org/2000/svg">
<path fill-rule="evenodd" clip-rule="evenodd" d="M29.9524 4.10847C29.8127 4.15335 28.7147 4.57105 27.5126 5.03663C24.2734 6.29116 22.7367 6.88384 16.6351 9.23158C13.5879 10.4041 10.6373 11.5422 10.0782 11.7606C9.51903 11.979 7.51198 12.7535 5.61798 13.4816C3.72398 14.2096 1.99873 14.9348 1.78402 15.093C1.28722 15.4591 1.07699 15.7879 1.00867 16.3063C0.937308 16.8478 1.31385 17.5222 1.86301 17.8362C2.19442 18.0256 5.92285 19.4582 7.89676 20.1545C8.4016 20.3325 8.47744 20.3986 8.62576 20.7905C8.71674 21.0309 9.09471 21.9258 9.46566 22.7789C9.83661 23.6321 10.5097 25.1996 10.9613 26.2623C11.4129 27.325 11.9136 28.3563 12.0739 28.554C12.7128 29.3426 13.8707 29.5708 14.8561 29.1021C15.147 28.9637 15.7777 28.4638 16.3302 27.9336C16.8613 27.424 17.5065 26.8124 17.7637 26.5745L18.2314 26.142L21.4234 28.3763C23.179 29.6052 24.7983 30.6974 25.022 30.8033C25.5758 31.0656 26.5831 31.0655 27.0846 30.8032C27.9967 30.3258 28.3033 29.706 28.7801 27.3759C28.9831 26.3833 29.442 24.1285 29.7998 22.3653C30.1576 20.602 30.7061 17.9029 31.0187 16.3672C32.8954 7.14838 33.0024 6.59562 33 6.13738C32.9976 5.69373 32.7038 4.92266 32.4121 4.59452C31.9548 4.08013 30.7695 3.8459 29.9524 4.10847ZM31.0707 6.27565C31.0707 6.59365 27.1452 26.2585 26.6925 28.2083C26.5488 28.8271 26.3374 29.139 26.0617 29.1389C25.8459 29.1388 25.4281 28.8624 21.8408 26.3468C16.5406 22.6299 15.0742 21.5943 14.9901 21.5088C14.9003 21.4175 15.4414 20.8933 20.3925 16.2738C25.4868 11.5207 25.3229 11.6953 25.2081 11.1447C25.129 10.7647 24.7109 10.4208 24.3282 10.4208C24.0924 10.4208 21.9219 11.5538 16.5319 14.4904L9.06228 18.56L7.99456 18.1676C4.86296 17.0167 3.42042 16.4652 3.42012 16.4189C3.41992 16.3904 3.86579 16.1955 4.41078 15.9857C12.0731 13.0359 19.1555 10.3049 28.7325 6.6071C29.7669 6.20771 30.7161 5.87853 30.842 5.87564C31.0411 5.87119 31.0707 5.9229 31.0707 6.27565ZM17.6517 16.2406C17.456 16.426 16.2095 17.5923 14.8815 18.8325C13.5537 20.0727 12.4607 21.0956 12.4528 21.1058C12.4449 21.116 12.4106 21.9154 12.3766 22.8824L12.3146 24.6404L11.3827 22.4687C10.8702 21.2742 10.4356 20.234 10.417 20.157C10.3949 20.0657 11.6908 19.3019 14.1445 17.9601C16.2133 16.8287 17.9288 15.9032 17.9567 15.9033C17.9847 15.9034 17.8474 16.0553 17.6517 16.2406ZM15.5197 24.2334L16.6319 25.0156L15.7233 25.8953C14.7607 26.8272 14.3038 27.2218 14.259 27.16C14.2135 27.0975 14.3167 23.4511 14.3639 23.4511C14.388 23.4511 14.9081 23.8032 15.5197 24.2334Z" fill="white"/>
</svg>
