<svg width="35" height="35" viewBox="0 0 35 35" fill="none" xmlns="http://www.w3.org/2000/svg">
<g clip-path="url(#clip0_156_280)">
<path d="M18.5938 0C9.51562 0 2.1875 7.40104 2.1875 16.5156C2.1875 19.5417 2.98958 22.4583 4.52083 25.0104L0 35L10.4635 30.9167C12.9427 32.3385 15.7135 33.0677 18.5938 33.0677C27.6719 33.0677 35 25.6667 35 16.5521C35 7.4375 27.6354 0 18.5938 0ZM18.5938 31.6094C16.0052 31.6094 13.4531 30.9531 11.1927 29.6406L10.5729 29.276L2.80729 32.3385L6.16146 24.9375L5.76042 24.2812C4.375 21.9479 3.64583 19.25 3.64583 16.5156C3.60938 8.23958 10.2812 1.45833 18.5938 1.45833C26.9062 1.45833 33.5417 8.23958 33.5417 16.5156C33.5417 24.7917 26.8698 31.6094 18.5938 31.6094ZM25.3177 17.8854C24.2604 17.375 22.7292 16.3906 21.5625 16.8281C20.8333 17.1198 20.4687 17.776 19.9948 18.3594C19.1198 17.9219 18.0625 17.2656 17.5156 16.6094C17.3333 16.3906 16.8594 15.8438 16.5677 15.4427C16.7135 15.2969 16.8594 15.151 17.0052 14.8958C17.6979 13.8385 17.6979 13.2917 17.224 12.1615C17.0417 11.724 16.8594 11.25 16.6771 10.8125C16.1302 9.53646 15.8021 8.29688 14.0885 8.26042C13.5781 8.26042 13.1042 8.22396 12.6302 8.40625C11.3542 8.84375 10.3333 10.3021 9.96875 11.5781C9.56771 13.0729 9.75 14.4583 10.3698 15.8438C11.026 17.3385 12.8125 19.6719 13.9792 20.8021C14.3437 21.1302 14.7083 21.4219 15.0729 21.75C15.474 22.1146 15.9115 22.3698 16.349 22.6615C18.0625 23.7917 21.3438 25.0313 23.349 24.6302C24.625 24.375 26.1198 23.4635 26.7396 22.2969C27.0677 21.6771 27.2865 20.5833 27.2135 19.8542C27.1042 18.651 26.2292 18.3594 25.3177 17.8854ZM25.4635 21.6406C25.1354 22.2969 24.0781 23.026 23.0938 23.2083C21.4531 23.5365 18.4635 22.3333 17.151 21.4583C16.75 21.1667 16.4219 20.9844 16.0208 20.6563C15.6198 20.3281 15.3281 20.0729 15 19.7448C13.9792 18.7604 12.2656 16.5 11.7188 15.2604C11.2812 14.2396 11.026 13.1823 11.3906 11.9792C11.6458 11.1042 12.375 10.0469 13.1042 9.82813C13.3594 9.71875 13.7604 9.75521 14.0885 9.75521C14.8906 9.75521 14.9271 10.4115 15.3646 11.3958C15.5469 11.8698 15.7292 12.3073 15.9115 12.7812C16.2031 13.4375 16.2396 13.5104 15.8021 14.1302C15 15.3333 14.0885 14.7865 16.4219 17.5573C17.1875 18.5052 18.7188 19.4167 19.9219 19.9271C20.5781 20.2188 20.7969 19.7448 21.0885 19.3802C22.3646 17.849 21.6719 17.7031 24.6979 19.1979C25.3542 19.526 25.7552 19.599 25.8281 20.0365C25.8281 20.474 25.6458 21.3125 25.4635 21.6406Z" fill="#EFEFEF"/>
</g>
<defs>
<clipPath id="clip0_156_280">
<rect width="35" height="35" fill="white"/>
</clipPath>
</defs>
</svg>
