<svg width="49" height="44" viewBox="0 0 49 44" fill="none" xmlns="http://www.w3.org/2000/svg">
<g clip-path="url(#clip0_401_2)">
<path d="M25.5938 5C16.5156 5 9.1875 12.401 9.1875 21.5156C9.1875 24.5417 9.98958 27.4583 11.5208 30.0104L7 40L17.4635 35.9167C19.9427 37.3385 22.7135 38.0677 25.5938 38.0677C34.6719 38.0677 42 30.6667 42 21.5521C42 12.4375 34.6354 5 25.5938 5ZM25.5938 36.6094C23.0052 36.6094 20.4531 35.9531 18.1927 34.6406L17.5729 34.276L9.80729 37.3385L13.1615 29.9375L12.7604 29.2812C11.375 26.9479 10.6458 24.25 10.6458 21.5156C10.6094 13.2396 17.2813 6.45833 25.5938 6.45833C33.9062 6.45833 40.5417 13.2396 40.5417 21.5156C40.5417 29.7917 33.8698 36.6094 25.5938 36.6094ZM31.3177 23.8854C30.2604 23.375 28.7292 22.3906 27.5625 22.8281C26.8333 23.1198 26.4688 23.776 25.9948 24.3594C25.1198 23.9219 24.0625 23.2656 23.5156 22.6094C23.3333 22.3906 22.8594 21.8438 22.5677 21.4427C22.7135 21.2969 22.8594 21.151 23.0052 20.8958C23.6979 19.8385 23.6979 19.2917 23.224 18.1615C23.0417 17.724 22.8594 17.25 22.6771 16.8125C22.1302 15.5365 21.8021 14.2969 20.0885 14.2604C19.5781 14.2604 19.1042 14.224 18.6302 14.4062C17.3542 14.8438 16.3333 16.3021 15.9688 17.5781C15.5677 19.0729 15.75 20.4583 16.3698 21.8438C17.026 23.3385 18.8125 25.6719 19.9792 26.8021C20.3438 27.1302 20.7083 27.4219 21.0729 27.75C21.474 28.1146 21.9115 28.3698 22.349 28.6615C24.0625 29.7917 27.3438 31.0313 29.349 30.6302C30.625 30.375 32.1198 29.4635 32.7396 28.2969C33.0677 27.6771 33.2865 26.5833 33.2135 25.8542C33.1042 24.651 32.2292 24.3594 31.3177 23.8854ZM31.4635 27.6406C31.1354 28.2969 30.0781 29.026 29.0938 29.2083C27.4531 29.5365 24.4635 28.3333 23.151 27.4583C22.75 27.1667 22.4219 26.9844 22.0208 26.6563C21.6198 26.3281 21.3281 26.0729 21 25.7448C19.9792 24.7604 18.2656 22.5 17.7188 21.2604C17.2812 20.2396 17.026 19.1823 17.3906 17.9792C17.6458 17.1042 18.375 16.0469 19.1042 15.8281C19.3594 15.7188 19.7604 15.7552 20.0885 15.7552C20.8906 15.7552 20.9271 16.4115 21.3646 17.3958C21.5469 17.8698 21.7292 18.3073 21.9115 18.7812C22.2031 19.4375 22.2396 19.5104 21.8021 20.1302C21 21.3333 20.0885 20.7865 22.4219 23.5573C23.1875 24.5052 24.7188 25.4167 25.9219 25.9271C26.5781 26.2188 26.7969 25.7448 27.0885 25.3802C28.3646 23.849 27.6719 23.7031 30.6979 25.1979C31.3542 25.526 31.7552 25.599 31.8281 26.0365C31.8281 26.474 31.6458 27.3125 31.4635 27.6406Z" fill="#EFEFEF"/>
</g>
<defs>
<clipPath id="clip0_401_2">
<rect width="35" height="35" fill="white" transform="translate(7 5)"/>
</clipPath>
</defs>
</svg>
