<svg width="25" height="16" viewBox="0 0 25 16" fill="none" xmlns="http://www.w3.org/2000/svg">
<path d="M24.9993 7.74572C24.9993 12.0236 21.538 15.4915 17.2682 15.4915C12.9985 15.4915 9.53711 12.0236 9.53711 7.74572C9.53711 3.46788 12.9985 0 17.2682 0C21.538 0 24.9993 3.46788 24.9993 7.74572Z" fill="#F79F1A"/>
<path d="M15.4622 7.74572C15.4622 12.0236 12.0009 15.4915 7.73109 15.4915C3.46133 15.4915 0 12.0236 0 7.74572C0 3.46788 3.46133 0 7.73109 0C12.0009 0 15.4622 3.46788 15.4622 7.74572Z" fill="#EA001B"/>
<path d="M12.5009 1.64807C10.697 3.06605 9.53906 5.26958 9.53906 7.74492C9.53906 10.2202 10.697 12.4254 12.5009 13.8433C14.3047 12.4254 15.4626 10.2202 15.4626 7.74492C15.4626 5.26958 14.3047 3.06605 12.5009 1.64807Z" fill="#FF5F01"/>
</svg>
