<svg width="26" height="8" viewBox="0 0 26 8" fill="none" xmlns="http://www.w3.org/2000/svg">
<path d="M9.38477 7.55627L10.6848 0.243774H12.716L11.4566 7.55627H9.38477Z" fill="#3C58BF"/>
<path d="M9.38477 7.55627L11.0504 0.243774H12.716L11.4566 7.55627H9.38477Z" fill="#293688"/>
<path d="M18.8094 0.325C18.4031 0.1625 17.7531 0 16.9406 0C14.9094 0 13.4469 1.01563 13.4469 2.47813C13.4469 3.575 14.4625 4.14375 15.275 4.50938C16.0875 4.875 16.3313 5.11875 16.3313 5.44375C16.3313 5.93125 15.6813 6.175 15.1125 6.175C14.3 6.175 13.8531 6.05312 13.1625 5.76875L12.8781 5.64687L12.5938 7.3125C13.0813 7.51563 13.975 7.71875 14.9094 7.71875C17.0625 7.71875 18.4844 6.70312 18.4844 5.15937C18.4844 4.30625 17.9563 3.65625 16.7375 3.12813C16.0063 2.7625 15.5594 2.55937 15.5594 2.19375C15.5594 1.86875 15.925 1.54375 16.7375 1.54375C17.4281 1.54375 17.9156 1.66562 18.2812 1.82812L18.4844 1.90938L18.8094 0.325Z" fill="#3C58BF"/>
<path d="M18.8094 0.325C18.4031 0.1625 17.7531 0 16.9406 0C14.9094 0 13.8125 1.01563 13.8125 2.47813C13.8125 3.575 14.4625 4.14375 15.275 4.50938C16.0875 4.875 16.3313 5.11875 16.3313 5.44375C16.3313 5.93125 15.6813 6.175 15.1125 6.175C14.3 6.175 13.8531 6.05312 13.1625 5.76875L12.8781 5.64687L12.5938 7.3125C13.0813 7.51563 13.975 7.71875 14.9094 7.71875C17.0625 7.71875 18.4844 6.70312 18.4844 5.15937C18.4844 4.30625 17.9563 3.65625 16.7375 3.12813C16.0063 2.7625 15.5594 2.55937 15.5594 2.19375C15.5594 1.86875 15.925 1.54375 16.7375 1.54375C17.4281 1.54375 17.9156 1.66562 18.2812 1.82812L18.4844 1.90938L18.8094 0.325Z" fill="#293688"/>
<path d="M22.3033 0.243774C21.8158 0.243774 21.4502 0.284399 21.2471 0.771899L18.2002 7.55627H20.3939L20.8002 6.33752H23.4002L23.6439 7.55627H25.5939L23.8877 0.243774H22.3033ZM21.3689 5.11877C21.4908 4.75315 22.1814 2.96565 22.1814 2.96565C22.1814 2.96565 22.3439 2.51877 22.4658 2.2344L22.5877 2.92502C22.5877 2.92502 22.9939 4.75315 23.0752 5.1594H21.3689V5.11877Z" fill="#3C58BF"/>
<path d="M22.7908 0.243774C22.3033 0.243774 21.9377 0.284399 21.7346 0.771899L18.2002 7.55627H20.3939L20.8002 6.33752H23.4002L23.6439 7.55627H25.5939L23.8877 0.243774H22.7908ZM21.3689 5.11877C21.5314 4.71252 22.1814 2.96565 22.1814 2.96565C22.1814 2.96565 22.3439 2.51877 22.4658 2.2344L22.5877 2.92502C22.5877 2.92502 22.9939 4.75315 23.0752 5.1594H21.3689V5.11877Z" fill="#293688"/>
<path d="M5.64648 5.36255L5.44336 4.3063C5.07773 3.08755 3.89961 1.74692 2.59961 1.09692L4.42773 7.59692H6.62148L9.91211 0.284424H7.71836L5.64648 5.36255Z" fill="#3C58BF"/>
<path d="M5.64648 5.36255L5.44336 4.3063C5.07773 3.08755 3.89961 1.74692 2.59961 1.09692L4.42773 7.59692H6.62148L9.91211 0.284424H8.12461L5.64648 5.36255Z" fill="#293688"/>
<path d="M0 0.243774L0.365625 0.325025C2.96563 0.9344 4.75312 2.47815 5.44375 4.30627L4.7125 0.853149C4.59063 0.365649 4.225 0.243774 3.77813 0.243774H0Z" fill="#FFBC00"/>
<path d="M0 0.243774C2.6 0.853149 4.75312 2.43753 5.44375 4.26565L4.75312 1.38127C4.63125 0.893774 4.225 0.609399 3.77813 0.609399L0 0.243774Z" fill="#F7981D"/>
<path d="M0 0.243774C2.6 0.853149 4.75312 2.43753 5.44375 4.26565L4.95625 2.68127C4.83437 2.19377 4.67188 1.70627 4.10313 1.50315L0 0.243774Z" fill="#ED7C00"/>
<path d="M7.67812 5.11877L6.29688 3.73752L5.64687 5.28127L5.48438 4.26565C5.11875 3.0469 3.94063 1.70627 2.64062 1.05627L4.46875 7.55627H6.6625L7.67812 5.11877Z" fill="#051244"/>
<path d="M11.4566 7.5563L9.70977 5.7688L9.38477 7.5563H11.4566Z" fill="#051244"/>
<path d="M16.1281 5.03748C16.2906 5.19998 16.3719 5.32185 16.3313 5.48435C16.3313 5.97185 15.6813 6.2156 15.1125 6.2156C14.3 6.2156 13.8531 6.09373 13.1625 5.80935L12.8781 5.68748L12.5938 7.3531C13.0813 7.55623 13.975 7.75935 14.9094 7.75935C16.2094 7.75935 17.2656 7.39373 17.875 6.74373L16.1281 5.03748Z" fill="#051244"/>
<path d="M18.4844 7.55625H20.3938L20.8 6.3375H23.4L23.6438 7.55625H25.5938L24.9031 4.59063L22.4656 2.23438L22.5875 2.88438C22.5875 2.88438 22.9937 4.7125 23.075 5.11875H21.3687C21.5312 4.7125 22.1812 2.96563 22.1812 2.96563C22.1812 2.96563 22.3437 2.51875 22.4656 2.23438" fill="#051244"/>
</svg>
