<svg width="36" height="70" viewBox="0 0 36 70" fill="none" xmlns="http://www.w3.org/2000/svg">
<mask id="path-1-inside-1_425_427" fill="white">
<path d="M29.657 69.9928C28.9335 69.9928 28.241 69.7856 27.604 69.3775C26.93 68.9505 26.4415 68.3478 26.1447 67.5944L18.2915 47.9425L10.2405 67.6195C9.89417 68.4169 9.38093 69.0196 8.7131 69.4277C8.08856 69.8044 7.42073 69.999 6.73435 69.999C5.39869 69.999 4.26709 69.3649 3.55597 68.2034C2.85722 67.067 2.77683 65.7485 3.32099 64.4991L14.6123 37.1246C14.7916 36.7039 15.008 36.3335 15.2677 36.0133C13.7156 35.8061 12.2501 35.4231 10.8897 34.8643C8.71929 33.9728 6.8271 32.7045 5.26265 31.0784C3.69819 29.4648 2.47384 27.5247 1.61432 25.3147C0.760979 23.1172 0.328125 20.6874 0.328125 18.0818C0.328125 15.4762 0.760979 13.0464 1.61432 10.8677C2.47384 8.67653 3.69819 6.74274 5.26265 5.12287C6.8271 3.50301 8.71929 2.22846 10.8897 1.33691C13.0416 0.451636 15.4347 0.00585938 18.0071 0.00585938C20.5795 0.00585938 22.9663 0.451636 25.1059 1.33691C27.2578 2.22846 29.1499 3.49673 30.7268 5.11031C32.3036 6.73018 33.5403 8.66397 34.3998 10.8552C35.2532 13.0401 35.686 15.4699 35.686 18.0692C35.686 20.6685 35.2532 23.1046 34.3998 25.3021C33.5403 27.5122 32.3036 29.4585 30.7268 31.0721C29.1499 32.6857 27.2578 33.9602 25.1059 34.8455C23.8444 35.3666 22.484 35.737 21.0432 35.9505C21.3277 36.2958 21.5565 36.7102 21.7234 37.1748L33.0456 64.5995C33.5465 65.8929 33.4723 67.1423 32.8354 68.2222C32.1676 69.3586 31.036 69.9802 29.6632 69.9802L29.657 69.9928ZM18.2977 44.64L27.2887 67.1298C27.4866 67.6383 27.8143 68.0339 28.2595 68.3227C28.6985 68.5989 29.1685 68.7433 29.657 68.7433C30.6093 68.7433 31.3204 68.3541 31.7718 67.5944C32.2108 66.8535 32.2541 66.0059 31.8955 65.0892L20.5733 37.652C20.2888 36.8735 19.8251 36.3586 19.1943 36.0886L18.1369 35.6429L17.1166 36.1012C16.5168 36.3712 16.0592 36.8797 15.7501 37.6081L4.45878 64.995C4.06303 65.8929 4.11868 66.7405 4.60718 67.5379C5.10187 68.3352 5.81299 68.7433 6.73435 68.7433C7.19194 68.7433 7.64953 68.6115 8.08238 68.3541C8.53378 68.0841 8.86769 67.6823 9.10885 67.136L18.3163 44.6463L18.2977 44.64ZM18.0009 1.25529C15.5893 1.25529 13.3508 1.66967 11.3473 2.49216C9.33766 3.31465 7.58769 4.49502 6.14073 5.98931C4.69376 7.4836 3.55598 9.27927 2.75829 11.3135C1.9606 13.3478 1.55867 15.6206 1.55867 18.0692C1.55867 20.5179 1.9606 22.797 2.75829 24.8438C3.55598 26.8969 4.69376 28.6925 6.14073 30.1931C7.58769 31.6937 9.33766 32.8678 11.3473 33.6902C13.0293 34.3809 14.8967 34.789 16.894 34.8957L18.1308 34.9648L19.386 34.8769C21.2782 34.745 23.0467 34.3432 24.6359 33.6902C26.6332 32.8678 28.3832 31.6874 29.8425 30.1931C31.3018 28.6988 32.4458 26.8969 33.2435 24.8438C34.0412 22.797 34.4431 20.5179 34.4431 18.0692C34.4431 15.6206 34.0412 13.354 33.2435 11.3135C32.4458 9.27299 31.3018 7.4836 29.8425 5.98303C28.3832 4.48874 26.6332 3.31465 24.6359 2.48588C22.6448 1.66339 20.4125 1.24901 18.0009 1.24901V1.25529ZM18.0009 30.1366C16.3313 30.1366 14.7792 29.8289 13.3756 29.2136C11.9842 28.6046 10.7599 27.7507 9.75196 26.6708C8.73784 25.5909 7.94016 24.3038 7.37745 22.8409C6.81474 21.3843 6.52411 19.777 6.52411 18.0755C6.52411 16.374 6.80856 14.7667 7.37745 13.3101C7.94634 11.8472 8.74403 10.5601 9.75196 9.48018C10.7661 8.40027 11.9842 7.55267 13.3756 6.95621C14.7731 6.35974 16.3313 6.0521 18.0009 6.0521C19.6705 6.0521 21.2287 6.35347 22.6262 6.95621C24.0237 7.55895 25.2543 8.40655 26.2746 9.48018C27.3011 10.5601 28.0987 11.8472 28.6491 13.3038C29.1994 14.7667 29.4839 16.374 29.4839 18.0755C29.4839 19.777 29.2056 21.3843 28.6491 22.8472C28.0987 24.3038 27.3011 25.5909 26.2746 26.6708C25.2481 27.7507 24.0237 28.6109 22.6262 29.2199C21.2287 29.8289 19.6766 30.1429 18.0071 30.1429L18.0009 30.1366ZM10.6486 25.8044C11.5452 26.7587 12.6335 27.5184 13.8702 28.0647C15.1132 28.6109 16.5045 28.8872 18.0009 28.8872C19.4973 28.8872 20.8886 28.6109 22.1315 28.0709C23.3744 27.5247 24.4689 26.765 25.3779 25.8044C26.2869 24.8438 26.998 23.7011 27.4866 22.4014C27.9874 21.0829 28.241 19.6263 28.241 18.0818C28.241 16.5373 27.9874 15.0806 27.4866 13.7621C26.998 12.4625 26.2869 11.3198 25.3779 10.3592C24.4751 9.40484 23.3868 8.65141 22.1439 8.11774C20.901 7.58406 19.5035 7.31408 18.0009 7.31408C16.4983 7.31408 15.1008 7.58406 13.8579 8.11774C12.6212 8.64513 11.5452 9.39856 10.6486 10.3529C9.74577 11.3135 9.03465 12.4625 8.52759 13.7747C8.02054 15.0869 7.76083 16.5373 7.76083 18.0818C7.76083 19.6263 8.02054 21.0766 8.52759 22.3889C9.03465 23.7011 9.74577 24.8501 10.6486 25.8107V25.8044Z"/>
</mask>
<path d="M29.657 69.9928C28.9335 69.9928 28.241 69.7856 27.604 69.3775C26.93 68.9505 26.4415 68.3478 26.1447 67.5944L18.2915 47.9425L10.2405 67.6195C9.89417 68.4169 9.38093 69.0196 8.7131 69.4277C8.08856 69.8044 7.42073 69.999 6.73435 69.999C5.39869 69.999 4.26709 69.3649 3.55597 68.2034C2.85722 67.067 2.77683 65.7485 3.32099 64.4991L14.6123 37.1246C14.7916 36.7039 15.008 36.3335 15.2677 36.0133C13.7156 35.8061 12.2501 35.4231 10.8897 34.8643C8.71929 33.9728 6.8271 32.7045 5.26265 31.0784C3.69819 29.4648 2.47384 27.5247 1.61432 25.3147C0.760979 23.1172 0.328125 20.6874 0.328125 18.0818C0.328125 15.4762 0.760979 13.0464 1.61432 10.8677C2.47384 8.67653 3.69819 6.74274 5.26265 5.12287C6.8271 3.50301 8.71929 2.22846 10.8897 1.33691C13.0416 0.451636 15.4347 0.00585938 18.0071 0.00585938C20.5795 0.00585938 22.9663 0.451636 25.1059 1.33691C27.2578 2.22846 29.1499 3.49673 30.7268 5.11031C32.3036 6.73018 33.5403 8.66397 34.3998 10.8552C35.2532 13.0401 35.686 15.4699 35.686 18.0692C35.686 20.6685 35.2532 23.1046 34.3998 25.3021C33.5403 27.5122 32.3036 29.4585 30.7268 31.0721C29.1499 32.6857 27.2578 33.9602 25.1059 34.8455C23.8444 35.3666 22.484 35.737 21.0432 35.9505C21.3277 36.2958 21.5565 36.7102 21.7234 37.1748L33.0456 64.5995C33.5465 65.8929 33.4723 67.1423 32.8354 68.2222C32.1676 69.3586 31.036 69.9802 29.6632 69.9802L29.657 69.9928ZM18.2977 44.64L27.2887 67.1298C27.4866 67.6383 27.8143 68.0339 28.2595 68.3227C28.6985 68.5989 29.1685 68.7433 29.657 68.7433C30.6093 68.7433 31.3204 68.3541 31.7718 67.5944C32.2108 66.8535 32.2541 66.0059 31.8955 65.0892L20.5733 37.652C20.2888 36.8735 19.8251 36.3586 19.1943 36.0886L18.1369 35.6429L17.1166 36.1012C16.5168 36.3712 16.0592 36.8797 15.7501 37.6081L4.45878 64.995C4.06303 65.8929 4.11868 66.7405 4.60718 67.5379C5.10187 68.3352 5.81299 68.7433 6.73435 68.7433C7.19194 68.7433 7.64953 68.6115 8.08238 68.3541C8.53378 68.0841 8.86769 67.6823 9.10885 67.136L18.3163 44.6463L18.2977 44.64ZM18.0009 1.25529C15.5893 1.25529 13.3508 1.66967 11.3473 2.49216C9.33766 3.31465 7.58769 4.49502 6.14073 5.98931C4.69376 7.4836 3.55598 9.27927 2.75829 11.3135C1.9606 13.3478 1.55867 15.6206 1.55867 18.0692C1.55867 20.5179 1.9606 22.797 2.75829 24.8438C3.55598 26.8969 4.69376 28.6925 6.14073 30.1931C7.58769 31.6937 9.33766 32.8678 11.3473 33.6902C13.0293 34.3809 14.8967 34.789 16.894 34.8957L18.1308 34.9648L19.386 34.8769C21.2782 34.745 23.0467 34.3432 24.6359 33.6902C26.6332 32.8678 28.3832 31.6874 29.8425 30.1931C31.3018 28.6988 32.4458 26.8969 33.2435 24.8438C34.0412 22.797 34.4431 20.5179 34.4431 18.0692C34.4431 15.6206 34.0412 13.354 33.2435 11.3135C32.4458 9.27299 31.3018 7.4836 29.8425 5.98303C28.3832 4.48874 26.6332 3.31465 24.6359 2.48588C22.6448 1.66339 20.4125 1.24901 18.0009 1.24901V1.25529ZM18.0009 30.1366C16.3313 30.1366 14.7792 29.8289 13.3756 29.2136C11.9842 28.6046 10.7599 27.7507 9.75196 26.6708C8.73784 25.5909 7.94016 24.3038 7.37745 22.8409C6.81474 21.3843 6.52411 19.777 6.52411 18.0755C6.52411 16.374 6.80856 14.7667 7.37745 13.3101C7.94634 11.8472 8.74403 10.5601 9.75196 9.48018C10.7661 8.40027 11.9842 7.55267 13.3756 6.95621C14.7731 6.35974 16.3313 6.0521 18.0009 6.0521C19.6705 6.0521 21.2287 6.35347 22.6262 6.95621C24.0237 7.55895 25.2543 8.40655 26.2746 9.48018C27.3011 10.5601 28.0987 11.8472 28.6491 13.3038C29.1994 14.7667 29.4839 16.374 29.4839 18.0755C29.4839 19.777 29.2056 21.3843 28.6491 22.8472C28.0987 24.3038 27.3011 25.5909 26.2746 26.6708C25.2481 27.7507 24.0237 28.6109 22.6262 29.2199C21.2287 29.8289 19.6766 30.1429 18.0071 30.1429L18.0009 30.1366ZM10.6486 25.8044C11.5452 26.7587 12.6335 27.5184 13.8702 28.0647C15.1132 28.6109 16.5045 28.8872 18.0009 28.8872C19.4973 28.8872 20.8886 28.6109 22.1315 28.0709C23.3744 27.5247 24.4689 26.765 25.3779 25.8044C26.2869 24.8438 26.998 23.7011 27.4866 22.4014C27.9874 21.0829 28.241 19.6263 28.241 18.0818C28.241 16.5373 27.9874 15.0806 27.4866 13.7621C26.998 12.4625 26.2869 11.3198 25.3779 10.3592C24.4751 9.40484 23.3868 8.65141 22.1439 8.11774C20.901 7.58406 19.5035 7.31408 18.0009 7.31408C16.4983 7.31408 15.1008 7.58406 13.8579 8.11774C12.6212 8.64513 11.5452 9.39856 10.6486 10.3529C9.74577 11.3135 9.03465 12.4625 8.52759 13.7747C8.02054 15.0869 7.76083 16.5373 7.76083 18.0818C7.76083 19.6263 8.02054 21.0766 8.52759 22.3889C9.03465 23.7011 9.74577 24.8501 10.6486 25.8107V25.8044Z" stroke="#59C8C8" stroke-width="2.99264" mask="url(#path-1-inside-1_425_427)"/>
<path d="M11.972 44.8893L3.74219 64.3415V66.5859L4.49035 68.8304L6.73483 69.5786L8.97931 68.8304L10.4756 65.0896L15.7128 53.1191L17.9572 47.1338L22.4462 56.1117L26.187 67.3341L28.4315 69.5786L31.4241 68.8304L32.9205 66.5859L32.1723 64.3415L29.1796 56.8599L23.9425 44.1411L20.9499 36.6595L17.9572 34.415L15.7128 35.9114L11.972 44.8893Z" fill="#59C8C8"/>
<circle cx="17.9559" cy="17.9559" r="14.2151" stroke="#59C8C8" stroke-width="7.48161"/>
</svg>
