<svg width="146" height="133" viewBox="0 0 146 133" fill="none" xmlns="http://www.w3.org/2000/svg">
<path d="M141.787 24.6638L140.364 25.6931L141.787 24.6638ZM0.376212 124.036C0.00620709 124.933 0.433226 125.959 1.32999 126.329L15.9435 132.359C16.8403 132.729 17.8672 132.302 18.2372 131.405C18.6072 130.509 18.1802 129.482 17.2834 129.112L4.29363 123.752L9.65328 110.762C10.0233 109.865 9.59626 108.838 8.6995 108.468C7.80274 108.098 6.77582 108.525 6.40582 109.422L0.376212 124.036ZM81.2673 2.40024C81.1961 4.1553 81.1959 4.1553 81.1959 4.1553C81.1961 4.1553 81.1963 4.15531 81.1967 4.15533C81.1976 4.15537 81.1992 4.15543 81.2015 4.15553C81.206 4.15572 81.2133 4.15603 81.2233 4.15647C81.2433 4.15736 81.2742 4.15875 81.3157 4.16072C81.3985 4.16466 81.5236 4.1709 81.6887 4.17996C82.0187 4.19806 82.5082 4.2274 83.1385 4.27204C84.3992 4.36131 86.2222 4.51168 88.4579 4.75549C92.9326 5.24345 99.0448 6.10397 105.605 7.59273C112.171 9.08305 119.14 11.1925 125.348 14.161C131.569 17.1359 136.911 20.9184 140.364 25.6931L143.211 23.6345C139.285 18.2063 133.373 14.1043 126.863 10.9917C120.34 7.87268 113.101 5.69165 106.382 4.16683C99.6565 2.64044 93.4057 1.76119 88.8388 1.26317C86.5537 1.01398 84.6861 0.859809 83.3866 0.767787C82.7367 0.72177 82.2286 0.691276 81.8811 0.672207C81.7073 0.662673 81.5737 0.655994 81.4825 0.651659C81.4369 0.649492 81.4019 0.64791 81.3778 0.64685C81.3658 0.646319 81.3565 0.64592 81.3499 0.645643C81.3466 0.645505 81.344 0.645397 81.3422 0.645319C81.3412 0.64528 81.3403 0.645242 81.3398 0.645223C81.3391 0.645194 81.3386 0.645171 81.2673 2.40024ZM140.364 25.6931C142.813 29.08 142.915 32.9624 140.871 37.4917C138.789 42.1039 134.539 47.2028 128.597 52.5886C116.741 63.3364 98.686 74.7553 79.7813 85.2325C60.9041 95.6945 41.2891 105.158 26.3852 112.01C18.9353 115.435 12.667 118.204 8.26246 120.118C6.06027 121.074 4.32421 121.817 3.13958 122.319C2.54727 122.571 2.09284 122.762 1.78693 122.891C1.63398 122.955 1.51817 123.003 1.44082 123.036C1.40215 123.052 1.37309 123.064 1.35382 123.072C1.34418 123.076 1.337 123.079 1.33227 123.081C1.32991 123.082 1.32822 123.083 1.32704 123.083C1.32597 123.084 1.32552 123.084 1.99994 124.706C2.67436 126.328 2.67515 126.327 2.67657 126.327C2.67787 126.326 2.67991 126.325 2.6825 126.324C2.68769 126.322 2.69535 126.319 2.70546 126.315C2.72567 126.306 2.75567 126.294 2.7953 126.277C2.87456 126.244 2.99231 126.195 3.14724 126.13C3.45708 126 3.9156 125.806 4.51212 125.553C5.70514 125.047 7.45025 124.301 9.66208 123.34C14.0856 121.418 20.3768 118.638 27.8526 115.202C42.8001 108.33 62.5015 98.8257 81.4842 88.3052C100.439 77.8 118.788 66.2224 130.957 55.1914C137.028 49.6877 141.696 44.2015 144.073 38.9371C146.487 33.5896 146.587 28.3037 143.211 23.6345L140.364 25.6931Z" fill="url(#paint0_linear_1_478)"/>
<defs>
<linearGradient id="paint0_linear_1_478" x1="74.2946" y1="3.00254" x2="77.3215" y2="107.268" gradientUnits="userSpaceOnUse">
<stop stop-color="white" stop-opacity="0"/>
<stop offset="1" stop-color="white"/>
</linearGradient>
</defs>
</svg>
