<svg width="164" height="47" viewBox="0 0 164 47" fill="none" xmlns="http://www.w3.org/2000/svg">
<path d="M17.5052 0.692383C16.8606 0.692383 16.2985 0.960926 15.8605 1.48962L4.25216 16.2259V2.84912C4.25216 2.2407 4.0662 1.7246 3.69427 1.32178C3.31407 0.910574 2.79337 0.692383 2.18176 0.692383C1.6032 0.692383 1.0949 0.889594 0.673378 1.27982C0.235329 1.68264 0.00390625 2.22811 0.00390625 2.84912V21.3324C0.00390625 21.9325 0.231196 22.4695 0.665113 22.8808C1.0825 23.2794 1.60733 23.4892 2.18589 23.4892C2.48757 23.4892 2.78924 23.422 3.07852 23.2878C3.37193 23.1535 3.61575 22.9689 3.83064 22.7213L15.3852 7.9934V21.3324C15.3852 21.9241 15.596 22.4528 16.001 22.864C16.406 23.2752 16.9267 23.4892 17.5094 23.4892C18.0921 23.4892 18.6458 23.271 19.0384 22.8556C19.4269 22.4486 19.6335 21.9199 19.6335 21.3324V2.84912C19.6335 2.2407 19.4227 1.70362 19.0301 1.305C18.6375 0.906378 18.1086 0.692383 17.5094 0.692383" fill="#A17FC7"/>
<path d="M42.972 0.692383C42.3934 0.692383 41.8727 0.902182 41.4719 1.2966C41.0628 1.69942 40.8479 2.23651 40.8479 2.84912V9.94453H29.8264V2.84912C29.8264 2.2407 29.6156 1.70362 29.223 1.305C28.8263 0.906378 28.3015 0.692383 27.7023 0.692383C27.103 0.692383 26.6071 0.902182 26.2021 1.2966C25.793 1.69942 25.5781 2.23651 25.5781 2.84912V21.3324C25.5781 21.9241 25.7889 22.457 26.1939 22.864C26.5947 23.2752 27.1196 23.4892 27.7023 23.4892C28.2849 23.4892 28.8387 23.271 29.2354 22.8556C29.6239 22.4486 29.8305 21.9199 29.8305 21.3324V13.9349H40.852V21.3324C40.852 21.9241 41.0628 22.457 41.4678 22.864C41.8686 23.2752 42.3934 23.4892 42.9761 23.4892C43.5588 23.4892 44.1167 23.2668 44.5052 22.843C44.8854 22.4318 45.0755 21.9199 45.0755 21.3282V2.84912C45.0755 2.2449 44.8771 1.71201 44.4928 1.31339C44.1043 0.906378 43.5795 0.692383 42.9761 0.692383" fill="#A17FC7"/>
<path d="M66.1871 23.5053C66.9434 23.5053 67.4145 23.1906 67.6789 22.9221C68.2534 22.3389 68.336 21.7682 68.3071 21.3948C68.2658 20.9206 68.0674 20.4675 67.7161 20.0604L60.6206 11.6978L67.0095 4.15766C67.3731 3.73387 67.5632 3.27231 67.5798 2.77718C67.5922 2.26947 67.4103 1.79113 67.0343 1.35474C66.6417 0.901579 66.1003 0.666604 65.4887 0.679191C64.8729 0.691779 64.3481 0.95193 63.9638 1.42188L56.9426 9.94812H55.2483V2.84852C55.2483 2.2401 55.0416 1.70301 54.6449 1.30439C54.2482 0.905775 53.7233 0.691779 53.1241 0.691779C52.5249 0.691779 52.0249 0.901579 51.624 1.296C51.2149 1.69882 51 2.2359 51 2.85271V21.336C51 21.9277 51.2149 22.4605 51.6157 22.8676C52.0166 23.2788 52.5414 23.4928 53.1241 23.4928C53.7068 23.4928 54.2606 23.2746 54.6573 22.8592C55.0458 22.448 55.2524 21.9235 55.2524 21.336V13.9385H57.0748L64.5713 22.8046C64.9556 23.2494 65.4928 23.4928 66.1251 23.5095C66.1458 23.5095 66.1623 23.5095 66.183 23.5095" fill="#A17FC7"/>
<path d="M114.722 45.7231C115.11 45.316 115.317 44.7873 115.317 44.1999V25.7166C115.317 25.1082 115.11 24.5711 114.714 24.1683C114.321 23.7697 113.792 23.5557 113.193 23.5557C112.548 23.5557 111.986 23.8242 111.548 24.3529L99.9358 39.0892V25.7166C99.9358 25.1082 99.7498 24.5921 99.3779 24.1893C98.9977 23.7781 98.477 23.5599 97.8654 23.5599C97.2868 23.5599 96.7785 23.7571 96.357 24.1473C95.9189 24.5501 95.6875 25.0956 95.6875 25.7166V44.1999C95.6875 44.8041 95.9148 45.337 96.3487 45.7482C96.7661 46.1468 97.2909 46.3566 97.8695 46.3566C98.1712 46.3566 98.4728 46.2895 98.7621 46.1552C99.0555 46.021 99.2993 45.8363 99.5142 45.5888L111.069 30.8609V44.1999C111.069 44.7915 111.284 45.3244 111.685 45.7314C112.09 46.1426 112.61 46.3566 113.193 46.3566C113.776 46.3566 114.329 46.1385 114.726 45.7189" fill="#A17FC7"/>
<path d="M138.656 23.5605C138.077 23.5605 137.556 23.7703 137.155 24.1648C136.746 24.5676 136.531 25.1047 136.531 25.7173V32.8127H125.51V25.7173C125.51 25.1047 125.299 24.5718 124.907 24.1732C124.514 23.7745 123.985 23.5605 123.386 23.5605C122.787 23.5605 122.291 23.7703 121.886 24.1648C121.477 24.5676 121.262 25.1047 121.262 25.7173V44.2006C121.262 44.7922 121.477 45.3209 121.877 45.7321C122.278 46.1433 122.803 46.3573 123.386 46.3573C123.969 46.3573 124.522 46.1391 124.919 45.7237C125.307 45.3167 125.514 44.788 125.514 44.2006V36.8031H136.536V44.2006C136.536 44.7922 136.75 45.3209 137.151 45.7321C137.556 46.1433 138.077 46.3573 138.66 46.3573C139.242 46.3573 139.8 46.1349 140.185 45.7153C140.565 45.3041 140.755 44.7922 140.755 44.2006V25.7173C140.755 25.1005 140.561 24.5844 140.176 24.1816C139.788 23.7745 139.263 23.5605 138.66 23.5605" fill="#A17FC7"/>
<path d="M163.998 44.2588C163.957 43.7804 163.759 43.3315 163.407 42.9244L156.316 34.5618L162.705 27.0217C163.068 26.5979 163.259 26.1363 163.275 25.6412C163.287 25.1335 163.106 24.6551 162.73 24.2187C162.337 23.7656 161.796 23.5348 161.184 23.5432C160.572 23.5558 160.043 23.8159 159.663 24.2859L152.642 32.8121H150.944V25.7167C150.944 25.1041 150.733 24.5712 150.34 24.1726C149.948 23.774 149.419 23.56 148.819 23.56C148.22 23.56 147.724 23.7698 147.319 24.1642C146.91 24.567 146.695 25.1041 146.695 25.7167V44.2C146.695 44.7917 146.91 45.3203 147.311 45.7316C147.716 46.1428 148.237 46.3568 148.819 46.3568C149.402 46.3568 149.956 46.1386 150.353 45.7232C150.741 45.3162 150.948 44.7875 150.948 44.2V36.8025H152.77L160.267 45.6686C160.651 46.1134 161.188 46.3568 161.82 46.3693C161.841 46.3693 161.858 46.3693 161.878 46.3693C162.635 46.3693 163.106 46.0546 163.37 45.7819C163.945 45.1987 164.027 44.628 163.998 44.2546" fill="#A17FC7"/>
<mask id="path-7-inside-1_407_1089" fill="white">
<path d="M89.8194 46.7766C89.3359 46.7766 88.8731 46.6381 88.4474 46.3653C87.997 46.08 87.6705 45.6772 87.4721 45.1737L82.2238 32.0402L76.8432 45.1905C76.6118 45.7234 76.2688 46.1262 75.8225 46.3989C75.4051 46.6507 74.9588 46.7807 74.5001 46.7807C73.6074 46.7807 72.8512 46.3569 72.3759 45.5807C71.909 44.8212 71.8552 43.9401 72.2189 43.1051L79.7649 24.8106C79.8848 24.5294 80.0294 24.2819 80.203 24.0679C79.1657 23.9294 78.1863 23.6735 77.2771 23.3C75.8266 22.7042 74.5621 21.8566 73.5165 20.7698C72.471 19.6915 71.6527 18.3949 71.0783 16.9179C70.508 15.4493 70.2188 13.8255 70.2188 12.0841C70.2188 10.3428 70.508 8.71897 71.0783 7.26296C71.6527 5.79856 72.471 4.5062 73.5165 3.42363C74.5621 2.34107 75.8266 1.48928 77.2771 0.893455C78.7153 0.301821 80.3146 0.00390625 82.0337 0.00390625C83.7528 0.00390625 85.348 0.301821 86.7779 0.893455C88.216 1.48928 89.4805 2.33687 90.5343 3.41524C91.5881 4.49781 92.4146 5.79017 92.9891 7.25457C93.5594 8.71477 93.8486 10.3386 93.8486 12.0758C93.8486 13.8129 93.5594 15.4409 92.9891 16.9095C92.4146 18.3865 91.5881 19.6873 90.5343 20.7656C89.4805 21.844 88.216 22.6958 86.7779 23.2874C85.9348 23.6357 85.0257 23.8833 84.0628 24.0259C84.2529 24.2567 84.4058 24.5336 84.5174 24.8441L92.084 43.1722C92.4188 44.0366 92.3692 44.8716 91.9435 45.5933C91.4972 46.3528 90.741 46.7682 89.8235 46.7682L89.8194 46.7766ZM82.2279 29.8332L88.2366 44.8632C88.3689 45.2031 88.5879 45.4674 88.8855 45.6604C89.1789 45.845 89.4929 45.9415 89.8194 45.9415C90.4558 45.9415 90.9311 45.6814 91.2327 45.1737C91.5261 44.6786 91.5551 44.1121 91.3154 43.4995L83.7487 25.163C83.5586 24.6427 83.2487 24.2987 82.8271 24.1182L82.1205 23.8203L81.4386 24.1266C81.0378 24.3071 80.7319 24.6469 80.5253 25.1337L72.9793 43.4365C72.7148 44.0366 72.752 44.603 73.0785 45.1359C73.4091 45.6688 73.8843 45.9415 74.5001 45.9415C74.8059 45.9415 75.1117 45.8534 75.401 45.6814C75.7026 45.501 75.9258 45.2324 76.087 44.8674L82.2403 29.8374L82.2279 29.8332ZM82.0296 0.838907C80.4179 0.838907 78.9219 1.11584 77.5829 1.66552C76.2399 2.21519 75.0704 3.00404 74.1033 4.00268C73.1363 5.00132 72.3759 6.20138 71.8428 7.56087C71.3097 8.92037 71.0411 10.4393 71.0411 12.0758C71.0411 13.7122 71.3097 15.2353 71.8428 16.6032C72.3759 17.9753 73.1363 19.1754 74.1033 20.1782C75.0704 21.181 76.2399 21.9657 77.5829 22.5154C78.707 22.9769 79.955 23.2497 81.2898 23.321L82.1163 23.3671L82.9553 23.3084C84.2198 23.2203 85.4017 22.9517 86.4638 22.5154C87.7986 21.9657 88.9681 21.1768 89.9434 20.1782C90.9187 19.1796 91.6832 17.9753 92.2163 16.6032C92.7494 15.2353 93.018 13.7122 93.018 12.0758C93.018 10.4393 92.7494 8.92457 92.2163 7.56087C91.6832 6.19718 90.9187 5.00132 89.9434 3.99848C88.9681 2.99984 87.7986 2.21519 86.4638 1.66132C85.1331 1.11165 83.6413 0.834711 82.0296 0.834711V0.838907ZM82.0296 20.1404C80.9138 20.1404 79.8765 19.9348 78.9384 19.5236C78.0086 19.1166 77.1904 18.546 76.5167 17.8243C75.839 17.1025 75.3059 16.2424 74.9299 15.2647C74.5538 14.2912 74.3596 13.2171 74.3596 12.08C74.3596 10.9428 74.5497 9.86867 74.9299 8.8952C75.31 7.91753 75.8431 7.05736 76.5167 6.33565C77.1945 5.61394 78.0086 5.04748 78.9384 4.64886C79.8724 4.25024 80.9138 4.04464 82.0296 4.04464C83.1453 4.04464 84.1867 4.24605 85.1207 4.64886C86.0547 5.05168 86.877 5.61813 87.5589 6.33565C88.2449 7.05736 88.778 7.91753 89.1458 8.891C89.5136 9.86867 89.7037 10.9428 89.7037 12.08C89.7037 13.2171 89.5177 14.2912 89.1458 15.2689C88.778 16.2424 88.2449 17.1025 87.5589 17.8243C86.8729 18.546 86.0547 19.1208 85.1207 19.5278C84.1867 19.9348 83.1495 20.1446 82.0337 20.1446L82.0296 20.1404ZM77.116 17.2452C77.7152 17.883 78.4425 18.3907 79.269 18.7558C80.0997 19.1208 81.0295 19.3054 82.0296 19.3054C83.0296 19.3054 83.9595 19.1208 84.7901 18.76C85.6207 18.3949 86.3522 17.8872 86.9597 17.2452C87.5672 16.6032 88.0424 15.8396 88.3689 14.971C88.7036 14.0898 88.8731 13.1164 88.8731 12.0841C88.8731 11.0519 88.7036 10.0785 88.3689 9.19731C88.0424 8.32874 87.5672 7.56507 86.9597 6.92309C86.3563 6.2853 85.629 5.78178 84.7984 5.42512C83.9677 5.06846 83.0338 4.88803 82.0296 4.88803C81.0254 4.88803 80.0914 5.06846 79.2608 5.42512C78.4342 5.77758 77.7152 6.2811 77.116 6.91889C76.5126 7.56087 76.0374 8.32874 75.6985 9.2057C75.3596 10.0827 75.1861 11.0519 75.1861 12.0841C75.1861 13.1164 75.3596 14.0856 75.6985 14.9626C76.0374 15.8396 76.5126 16.6074 77.116 17.2494V17.2452Z"/>
</mask>
<path d="M89.8194 46.7766C89.3359 46.7766 88.8731 46.6381 88.4474 46.3653C87.997 46.08 87.6705 45.6772 87.4721 45.1737L82.2238 32.0402L76.8432 45.1905C76.6118 45.7234 76.2688 46.1262 75.8225 46.3989C75.4051 46.6507 74.9588 46.7807 74.5001 46.7807C73.6074 46.7807 72.8512 46.3569 72.3759 45.5807C71.909 44.8212 71.8552 43.9401 72.2189 43.1051L79.7649 24.8106C79.8848 24.5294 80.0294 24.2819 80.203 24.0679C79.1657 23.9294 78.1863 23.6735 77.2771 23.3C75.8266 22.7042 74.5621 21.8566 73.5165 20.7698C72.471 19.6915 71.6527 18.3949 71.0783 16.9179C70.508 15.4493 70.2188 13.8255 70.2188 12.0841C70.2188 10.3428 70.508 8.71897 71.0783 7.26296C71.6527 5.79856 72.471 4.5062 73.5165 3.42363C74.5621 2.34107 75.8266 1.48928 77.2771 0.893455C78.7153 0.301821 80.3146 0.00390625 82.0337 0.00390625C83.7528 0.00390625 85.348 0.301821 86.7779 0.893455C88.216 1.48928 89.4805 2.33687 90.5343 3.41524C91.5881 4.49781 92.4146 5.79017 92.9891 7.25457C93.5594 8.71477 93.8486 10.3386 93.8486 12.0758C93.8486 13.8129 93.5594 15.4409 92.9891 16.9095C92.4146 18.3865 91.5881 19.6873 90.5343 20.7656C89.4805 21.844 88.216 22.6958 86.7779 23.2874C85.9348 23.6357 85.0257 23.8833 84.0628 24.0259C84.2529 24.2567 84.4058 24.5336 84.5174 24.8441L92.084 43.1722C92.4188 44.0366 92.3692 44.8716 91.9435 45.5933C91.4972 46.3528 90.741 46.7682 89.8235 46.7682L89.8194 46.7766ZM82.2279 29.8332L88.2366 44.8632C88.3689 45.2031 88.5879 45.4674 88.8855 45.6604C89.1789 45.845 89.4929 45.9415 89.8194 45.9415C90.4558 45.9415 90.9311 45.6814 91.2327 45.1737C91.5261 44.6786 91.5551 44.1121 91.3154 43.4995L83.7487 25.163C83.5586 24.6427 83.2487 24.2987 82.8271 24.1182L82.1205 23.8203L81.4386 24.1266C81.0378 24.3071 80.7319 24.6469 80.5253 25.1337L72.9793 43.4365C72.7148 44.0366 72.752 44.603 73.0785 45.1359C73.4091 45.6688 73.8843 45.9415 74.5001 45.9415C74.8059 45.9415 75.1117 45.8534 75.401 45.6814C75.7026 45.501 75.9258 45.2324 76.087 44.8674L82.2403 29.8374L82.2279 29.8332ZM82.0296 0.838907C80.4179 0.838907 78.9219 1.11584 77.5829 1.66552C76.2399 2.21519 75.0704 3.00404 74.1033 4.00268C73.1363 5.00132 72.3759 6.20138 71.8428 7.56087C71.3097 8.92037 71.0411 10.4393 71.0411 12.0758C71.0411 13.7122 71.3097 15.2353 71.8428 16.6032C72.3759 17.9753 73.1363 19.1754 74.1033 20.1782C75.0704 21.181 76.2399 21.9657 77.5829 22.5154C78.707 22.9769 79.955 23.2497 81.2898 23.321L82.1163 23.3671L82.9553 23.3084C84.2198 23.2203 85.4017 22.9517 86.4638 22.5154C87.7986 21.9657 88.9681 21.1768 89.9434 20.1782C90.9187 19.1796 91.6832 17.9753 92.2163 16.6032C92.7494 15.2353 93.018 13.7122 93.018 12.0758C93.018 10.4393 92.7494 8.92457 92.2163 7.56087C91.6832 6.19718 90.9187 5.00132 89.9434 3.99848C88.9681 2.99984 87.7986 2.21519 86.4638 1.66132C85.1331 1.11165 83.6413 0.834711 82.0296 0.834711V0.838907ZM82.0296 20.1404C80.9138 20.1404 79.8765 19.9348 78.9384 19.5236C78.0086 19.1166 77.1904 18.546 76.5167 17.8243C75.839 17.1025 75.3059 16.2424 74.9299 15.2647C74.5538 14.2912 74.3596 13.2171 74.3596 12.08C74.3596 10.9428 74.5497 9.86867 74.9299 8.8952C75.31 7.91753 75.8431 7.05736 76.5167 6.33565C77.1945 5.61394 78.0086 5.04748 78.9384 4.64886C79.8724 4.25024 80.9138 4.04464 82.0296 4.04464C83.1453 4.04464 84.1867 4.24605 85.1207 4.64886C86.0547 5.05168 86.877 5.61813 87.5589 6.33565C88.2449 7.05736 88.778 7.91753 89.1458 8.891C89.5136 9.86867 89.7037 10.9428 89.7037 12.08C89.7037 13.2171 89.5177 14.2912 89.1458 15.2689C88.778 16.2424 88.2449 17.1025 87.5589 17.8243C86.8729 18.546 86.0547 19.1208 85.1207 19.5278C84.1867 19.9348 83.1495 20.1446 82.0337 20.1446L82.0296 20.1404ZM77.116 17.2452C77.7152 17.883 78.4425 18.3907 79.269 18.7558C80.0997 19.1208 81.0295 19.3054 82.0296 19.3054C83.0296 19.3054 83.9595 19.1208 84.7901 18.76C85.6207 18.3949 86.3522 17.8872 86.9597 17.2452C87.5672 16.6032 88.0424 15.8396 88.3689 14.971C88.7036 14.0898 88.8731 13.1164 88.8731 12.0841C88.8731 11.0519 88.7036 10.0785 88.3689 9.19731C88.0424 8.32874 87.5672 7.56507 86.9597 6.92309C86.3563 6.2853 85.629 5.78178 84.7984 5.42512C83.9677 5.06846 83.0338 4.88803 82.0296 4.88803C81.0254 4.88803 80.0914 5.06846 79.2608 5.42512C78.4342 5.77758 77.7152 6.2811 77.116 6.91889C76.5126 7.56087 76.0374 8.32874 75.6985 9.2057C75.3596 10.0827 75.1861 11.0519 75.1861 12.0841C75.1861 13.1164 75.3596 14.0856 75.6985 14.9626C76.0374 15.8396 76.5126 16.6074 77.116 17.2494V17.2452Z" stroke="#59C8C8" stroke-width="2" mask="url(#path-7-inside-1_407_1089)"/>
<path d="M78 30L72.5 43V44.5L73 46L74.5 46.5L76 46L77 43.5L80.5 35.5L82 31.5L85 37.5L87.5 45L89 46.5L91 46L92 44.5L91.5 43L89.5 38L86 29.5L84 24.5L82 23L80.5 24L78 30Z" fill="#59C8C8"/>
<circle cx="82" cy="12" r="9.5" stroke="#59C8C8" stroke-width="5"/>
</svg>
