<svg width="68" height="69" viewBox="0 0 68 69" fill="none" xmlns="http://www.w3.org/2000/svg">
<g filter="url(#filter0_d_1_375)">
<circle cx="25" cy="25" r="25" transform="matrix(-1 0 0 1 59 6)" fill="white"/>
</g>
<path d="M41.1973 30.053C41.7203 30.576 41.7203 31.424 41.1973 31.947L32.6741 40.4702C32.1511 40.9932 31.3031 40.9932 30.7801 40.4702C30.2571 39.9472 30.2571 39.0992 30.7801 38.5761L38.3562 31L30.7801 23.4239C30.2571 22.9008 30.2571 22.0528 30.7801 21.5298C31.3031 21.0068 32.1511 21.0068 32.6741 21.5298L41.1973 30.053ZM39.3574 29.6607H40.2503V32.3393H39.3574V29.6607Z" fill="#AB91C4"/>
<defs>
<filter id="filter0_d_1_375" x="0.0714312" y="0.642859" width="67.8571" height="67.8571" filterUnits="userSpaceOnUse" color-interpolation-filters="sRGB">
<feFlood flood-opacity="0" result="BackgroundImageFix"/>
<feColorMatrix in="SourceAlpha" type="matrix" values="0 0 0 0 0 0 0 0 0 0 0 0 0 0 0 0 0 0 127 0" result="hardAlpha"/>
<feOffset dy="3.57143"/>
<feGaussianBlur stdDeviation="4.46428"/>
<feComposite in2="hardAlpha" operator="out"/>
<feColorMatrix type="matrix" values="0 0 0 0 0 0 0 0 0 0 0 0 0 0 0 0 0 0 0.25 0"/>
<feBlend mode="normal" in2="BackgroundImageFix" result="effect1_dropShadow_1_375"/>
<feBlend mode="normal" in="SourceGraphic" in2="effect1_dropShadow_1_375" result="shape"/>
</filter>
</defs>
</svg>
