<svg width="31" height="31" viewBox="0 0 31 31" fill="none" xmlns="http://www.w3.org/2000/svg">
<circle cx="15.2733" cy="15.2733" r="15.2733" transform="matrix(-1 0 0 1 30.5465 0)" fill="#AB91C4"/>
<path d="M11.8766 16.0811C11.5733 15.7778 11.5733 15.2861 11.8766 14.9828L16.8189 10.0405C17.1221 9.73726 17.6139 9.73726 17.9171 10.0405C18.2204 10.3438 18.2204 10.8356 17.9171 11.1388L13.524 15.532L17.9171 19.9251C18.2204 20.2284 18.2204 20.7201 17.9171 21.0234C17.6139 21.3267 17.1221 21.3267 16.8189 21.0234L11.8766 16.0811ZM12.9435 16.3086L12.4257 16.3086L12.4257 14.7554L12.9435 14.7554L12.9435 16.3086Z" fill="white"/>
</svg>
